<?xml version="1.0" encoding="UTF-8"?>
<svg version="1.1" xmlns="http://www.w3.org/2000/svg" width="816" height="842">
<path d="M0 0 C269.28 0 538.56 0 816 0 C816 277.86 816 555.72 816 842 C546.72 842 277.44 842 0 842 C0 564.14 0 286.28 0 0 Z " fill="#F9FAFB" transform="translate(0,0)"/>
<path d="M0 0 C2.17239168 0.96894863 3.92430062 2.22064288 5.85546875 3.60546875 C8.2138281 5.18847708 9.34138585 5.88602272 12.203125 5.734375 C14.6647847 5.14740015 14.6647847 5.14740015 17.91796875 3.85546875 C20.91796875 7.48046875 20.91796875 7.48046875 20.91796875 10.85546875 C22.01109375 10.48421875 23.10421875 10.11296875 24.23046875 9.73046875 C25.44734375 9.44171875 26.66421875 9.15296875 27.91796875 8.85546875 C28.90796875 9.51546875 29.89796875 10.17546875 30.91796875 10.85546875 C31.90796875 10.85546875 32.89796875 10.85546875 33.91796875 10.85546875 C33.91796875 11.51546875 33.91796875 12.17546875 33.91796875 12.85546875 C32.59796875 12.85546875 31.27796875 12.85546875 29.91796875 12.85546875 C31.03651461 16.58161028 31.03651461 16.58161028 33.91796875 18.85546875 C34.24796875 19.84546875 34.57796875 20.83546875 34.91796875 21.85546875 C35.57796875 22.18546875 36.23796875 22.51546875 36.91796875 22.85546875 C36.89734375 23.94859375 36.87671875 25.04171875 36.85546875 26.16796875 C36.73252423 29.79931066 36.73252423 29.79931066 37.91796875 32.85546875 C37.48046875 35.04296875 37.48046875 35.04296875 36.91796875 36.85546875 C37.90796875 35.86546875 38.89796875 34.87546875 39.91796875 33.85546875 C42.91121138 34.95299105 43.76407776 35.53229767 45.16796875 38.48046875 C45.41546875 39.26421875 45.66296875 40.04796875 45.91796875 40.85546875 C46.57796875 40.85546875 47.23796875 40.85546875 47.91796875 40.85546875 C47.91796875 41.51546875 47.91796875 42.17546875 47.91796875 42.85546875 C49.09359375 42.93796875 50.26921875 43.02046875 51.48046875 43.10546875 C56.0726666 43.65391306 59.0604614 45.36416192 62.91796875 47.85546875 C62.91796875 49.17546875 62.91796875 50.49546875 62.91796875 51.85546875 C63.50964844 52.03722656 64.10132813 52.21898437 64.7109375 52.40625 C69.13047675 53.81213932 73.04337 55.23074056 76.91796875 57.85546875 C75.68007246 61.56915762 74.06571998 62.62901056 70.91796875 64.85546875 C70.25796875 64.85546875 69.59796875 64.85546875 68.91796875 64.85546875 C68.58796875 65.84546875 68.25796875 66.83546875 67.91796875 67.85546875 C67.25796875 67.85546875 66.59796875 67.85546875 65.91796875 67.85546875 C65.94890625 69.06203125 65.94890625 69.06203125 65.98046875 70.29296875 C65.91796875 72.85546875 65.91796875 72.85546875 64.91796875 73.85546875 C64.79421875 74.96921875 64.67046875 76.08296875 64.54296875 77.23046875 C63.91696137 80.86131158 63.66637956 81.67964353 60.91796875 83.85546875 C60.58796875 84.51546875 60.25796875 85.17546875 59.91796875 85.85546875 C62.81496195 87.35391351 65.57972178 88.55527499 68.78125 89.2734375 C71.37948089 89.98118229 73.67535843 91.00855127 76.10546875 92.16796875 C77.42611328 92.78091797 77.42611328 92.78091797 78.7734375 93.40625 C80.91796875 94.85546875 80.91796875 94.85546875 81.71875 97.0234375 C81.78449219 97.62800781 81.85023438 98.23257813 81.91796875 98.85546875 C82.47484375 98.95859375 83.03171875 99.06171875 83.60546875 99.16796875 C85.91796875 99.85546875 85.91796875 99.85546875 88.35546875 101.41796875 C90.78286008 103.06684442 90.78286008 103.06684442 93.35546875 102.79296875 C97.00984478 102.88209987 98.92617462 104.84058699 101.91796875 106.85546875 C105.14835717 107.64617423 105.14835717 107.64617423 107.91796875 107.85546875 C107.91796875 109.17546875 107.91796875 110.49546875 107.91796875 111.85546875 C108.54445313 111.91605469 109.1709375 111.97664063 109.81640625 112.0390625 C111.04230469 112.16474609 111.04230469 112.16474609 112.29296875 112.29296875 C113.10507812 112.37417969 113.9171875 112.45539063 114.75390625 112.5390625 C116.91796875 112.85546875 116.91796875 112.85546875 118.91796875 113.85546875 C118.91796875 113.19546875 118.91796875 112.53546875 118.91796875 111.85546875 C119.74941406 111.86707031 120.58085937 111.87867188 121.4375 111.890625 C122.52417969 111.89964844 123.61085938 111.90867187 124.73046875 111.91796875 C125.80941406 111.92957031 126.88835937 111.94117188 128 111.953125 C130.98309044 111.99171641 130.98309044 111.99171641 133.91796875 110.85546875 C134.57796875 111.18546875 135.23796875 111.51546875 135.91796875 111.85546875 C135.91796875 112.51546875 135.91796875 113.17546875 135.91796875 113.85546875 C136.88734375 113.83484375 137.85671875 113.81421875 138.85546875 113.79296875 C141.91796875 113.85546875 141.91796875 113.85546875 142.91796875 114.85546875 C142.95877658 116.85505239 142.96051231 118.85592129 142.91796875 120.85546875 C144.00078125 120.76265625 144.00078125 120.76265625 145.10546875 120.66796875 C148.4799619 120.89293496 150.22390786 121.85416638 152.91796875 123.85546875 C152.91796875 124.51546875 152.91796875 125.17546875 152.91796875 125.85546875 C155.88796875 125.19546875 158.85796875 124.53546875 161.91796875 123.85546875 C162.38203125 124.84546875 162.38203125 124.84546875 162.85546875 125.85546875 C164.68395657 128.05371381 164.68395657 128.05371381 166.9453125 128.015625 C168.53291341 127.94958503 170.12018327 127.87513564 171.70703125 127.79296875 C174.70861763 127.87781925 176.43098201 129.26656055 178.91796875 130.85546875 C181.82400687 130.57870321 184.14547512 129.77963329 186.91796875 128.85546875 C186.91796875 129.84546875 186.91796875 130.83546875 186.91796875 131.85546875 C192.19796875 131.85546875 197.47796875 131.85546875 202.91796875 131.85546875 C205.37946687 126.9324725 204.63838538 124.65760876 203.31640625 119.515625 C202.8607674 116.47356564 203.22291498 114.23199842 203.85546875 111.23046875 C204.45819466 108.31662825 204.91796875 105.83802582 204.91796875 102.85546875 C208.90797041 101.43046816 212.72327304 100.45471099 216.91796875 99.85546875 C218.69364835 102.12833864 219.94720857 103.87106135 219.859375 106.828125 C219.55497243 108.83868518 219.23675135 110.8471384 218.91796875 112.85546875 C219.25296954 115.22240592 219.25296954 115.22240592 219.91796875 116.85546875 C219.25796875 116.85546875 218.59796875 116.85546875 217.91796875 116.85546875 C219.78267226 120.39840541 221.01161293 122.62775692 224.91796875 123.85546875 C225.86671875 123.85546875 226.81546875 123.85546875 227.79296875 123.85546875 C230.91796875 123.85546875 230.91796875 123.85546875 233.60546875 125.04296875 C238.71968848 126.2974 243.01654041 124.47764966 247.91796875 122.85546875 C248.24796875 123.18546875 248.57796875 123.51546875 248.91796875 123.85546875 C250.50532928 123.95471389 252.09704126 123.98626783 253.6875 123.98828125 C254.65880859 123.98957031 255.63011719 123.99085938 256.63085938 123.9921875 C257.65373047 123.98832031 258.67660156 123.98445313 259.73046875 123.98046875 C260.74173828 123.98433594 261.75300781 123.98820312 262.79492188 123.9921875 C264.25768555 123.99025391 264.25768555 123.99025391 265.75 123.98828125 C266.64436768 123.98715332 267.53873535 123.98602539 268.46020508 123.98486328 C270.89890407 123.93867416 270.89890407 123.93867416 273.1159668 123.28466797 C274.91796875 122.85546875 274.91796875 122.85546875 276.91796875 123.85546875 C277.24796875 122.86546875 277.57796875 121.87546875 277.91796875 120.85546875 C277.91796875 121.51546875 277.91796875 122.17546875 277.91796875 122.85546875 C279.37700133 122.54624991 280.83517597 122.23298076 282.29296875 121.91796875 C283.10507812 121.74394531 283.9171875 121.56992187 284.75390625 121.390625 C286.94743175 120.93216182 286.94743175 120.93216182 288.91796875 119.85546875 C290.25214844 120.33113281 290.25214844 120.33113281 291.61328125 120.81640625 C295.3363126 121.98700476 297.93039525 121.8746089 301.79296875 121.48046875 C302.94539063 121.36960937 304.0978125 121.25875 305.28515625 121.14453125 C306.15398437 121.04914063 307.0228125 120.95375 307.91796875 120.85546875 C308.04171875 120.21738281 308.16546875 119.57929688 308.29296875 118.921875 C308.60234375 117.89900391 308.60234375 117.89900391 308.91796875 116.85546875 C310.23443994 116.15609343 311.56819026 115.48817742 312.91796875 114.85546875 C313.24796875 113.86546875 313.57796875 112.87546875 313.91796875 111.85546875 C314.57796875 111.85546875 315.23796875 111.85546875 315.91796875 111.85546875 C315.91796875 111.19546875 315.91796875 110.53546875 315.91796875 109.85546875 C316.75328125 109.69111328 316.75328125 109.69111328 317.60546875 109.5234375 C322.26377353 108.55558026 326.59255087 107.30760351 331.0234375 105.5859375 C337.16503591 103.21793976 342.41887732 102.59019971 348.91796875 102.85546875 C348.40234375 103.43296875 347.88671875 104.01046875 347.35546875 104.60546875 C345.70043739 106.68592974 345.70043739 106.68592974 346.10546875 108.79296875 C346.37359375 109.47359375 346.64171875 110.15421875 346.91796875 110.85546875 C347.26859375 111.76296875 347.61921875 112.67046875 347.98046875 113.60546875 C348.28984375 114.34796875 348.59921875 115.09046875 348.91796875 115.85546875 C345.29823473 117.17173567 342.82229744 117.85546875 338.91796875 117.85546875 C338.91796875 118.51546875 338.91796875 119.17546875 338.91796875 119.85546875 C337.59796875 120.18546875 336.27796875 120.51546875 334.91796875 120.85546875 C334.91796875 123.16546875 334.91796875 125.47546875 334.91796875 127.85546875 C335.57796875 128.18546875 336.23796875 128.51546875 336.91796875 128.85546875 C335.92796875 129.18546875 334.93796875 129.51546875 333.91796875 129.85546875 C333.94117188 130.62632812 333.964375 131.3971875 333.98828125 132.19140625 C334.00632812 133.19429687 334.024375 134.1971875 334.04296875 135.23046875 C334.06617188 136.22820312 334.089375 137.2259375 334.11328125 138.25390625 C333.91796875 140.85546875 333.91796875 140.85546875 331.91796875 142.85546875 C331.23664424 144.51619724 330.57054748 146.18323575 329.91796875 147.85546875 C329.25796875 148.84546875 328.59796875 149.83546875 327.91796875 150.85546875 C326.92796875 150.85546875 325.93796875 150.85546875 324.91796875 150.85546875 C324.91796875 151.51546875 324.91796875 152.17546875 324.91796875 152.85546875 C324.25796875 152.85546875 323.59796875 152.85546875 322.91796875 152.85546875 C322.91796875 153.84546875 322.91796875 154.83546875 322.91796875 155.85546875 C323.90796875 155.85546875 324.89796875 155.85546875 325.91796875 155.85546875 C325.45974407 159.32488421 325.02665192 162.52941924 323.91796875 165.85546875 C323.25796875 165.85546875 322.59796875 165.85546875 321.91796875 165.85546875 C320.46564622 169.43393912 319.1057033 173.03606982 317.79296875 176.66796875 C317.26316406 178.13169922 317.26316406 178.13169922 316.72265625 179.625 C316.45710938 180.36105469 316.1915625 181.09710938 315.91796875 181.85546875 C315.15871094 181.71109375 314.39945313 181.56671875 313.6171875 181.41796875 C312.62332031 181.23234375 311.62945313 181.04671875 310.60546875 180.85546875 C309.61933594 180.66984375 308.63320313 180.48421875 307.6171875 180.29296875 C304.8801507 179.77547079 304.8801507 179.77547079 301.91796875 179.85546875 C301.92957031 180.83128906 301.94117188 181.80710937 301.953125 182.8125 C301.96666016 184.72095703 301.96666016 184.72095703 301.98046875 186.66796875 C301.99207031 187.93253906 302.00367188 189.19710937 302.015625 190.5 C301.91796875 193.85546875 301.91796875 193.85546875 300.91796875 196.85546875 C299.92796875 197.18546875 298.93796875 197.51546875 297.91796875 197.85546875 C296.78780274 202.87842879 297.13880783 206.83420949 297.91796875 211.85546875 C296.92796875 212.18546875 295.93796875 212.51546875 294.91796875 212.85546875 C294.91796875 213.51546875 294.91796875 214.17546875 294.91796875 214.85546875 C291.82477289 215.70876416 289.1246076 215.85546875 285.91796875 215.85546875 C285.79679687 214.87964844 285.675625 213.90382813 285.55078125 212.8984375 C285.38320313 211.62613281 285.215625 210.35382813 285.04296875 209.04296875 C284.79933594 207.14611328 284.79933594 207.14611328 284.55078125 205.2109375 C284.12228422 201.73847558 284.12228422 201.73847558 281.91796875 198.85546875 C281.46168955 196.27833621 281.08851599 193.7624859 280.79296875 191.16796875 C280.70660156 190.46607422 280.62023437 189.76417969 280.53125 189.04101562 C280.3197 187.3133573 280.11788275 185.58451215 279.91796875 183.85546875 C278.59796875 184.18546875 277.27796875 184.51546875 275.91796875 184.85546875 C275.91796875 186.17546875 275.91796875 187.49546875 275.91796875 188.85546875 C275.25796875 189.18546875 274.59796875 189.51546875 273.91796875 189.85546875 C273.18721227 192.16953095 272.51658617 194.50375744 271.91796875 196.85546875 C270.26796875 197.18546875 268.61796875 197.51546875 266.91796875 197.85546875 C266.58796875 196.86546875 266.25796875 195.87546875 265.91796875 194.85546875 C264.92796875 194.85546875 263.93796875 194.85546875 262.91796875 194.85546875 C260.22894223 188.83204934 259.64626307 185.32960675 260.91796875 178.85546875 C261.90796875 178.52546875 262.89796875 178.19546875 263.91796875 177.85546875 C263.91796875 177.19546875 263.91796875 176.53546875 263.91796875 175.85546875 C268.86796875 174.86546875 268.86796875 174.86546875 273.91796875 173.85546875 C273.91796875 172.86546875 273.91796875 171.87546875 273.91796875 170.85546875 C275.23796875 170.85546875 276.55796875 170.85546875 277.91796875 170.85546875 C278.03914063 170.14519531 278.1603125 169.43492187 278.28515625 168.703125 C278.45273437 167.78402344 278.6203125 166.86492187 278.79296875 165.91796875 C278.95539063 165.00144531 279.1178125 164.08492187 279.28515625 163.140625 C279.49398438 162.38652344 279.7028125 161.63242187 279.91796875 160.85546875 C280.57796875 160.52546875 281.23796875 160.19546875 281.91796875 159.85546875 C278.11971952 157.36646922 274.24301821 157.55940572 269.86328125 157.546875 C268.26301721 157.52171349 266.66275688 157.49631548 265.0625 157.47070312 C262.552256 157.44199359 260.04207631 157.41796207 257.53173828 157.39916992 C255.10024941 157.37743034 252.66950872 157.33798635 250.23828125 157.296875 C249.49434113 157.29675919 248.750401 157.29664337 247.98391724 157.29652405 C243.24374007 157.20714086 239.9396422 156.38224131 235.91796875 153.85546875 C234.41640001 150.85233127 234.82515671 148.06479353 234.85546875 144.73046875 C234.86449219 143.44914063 234.87351562 142.1678125 234.8828125 140.84765625 C234.90021484 139.36652344 234.90021484 139.36652344 234.91796875 137.85546875 C234.25796875 137.85546875 233.59796875 137.85546875 232.91796875 137.85546875 C232.91796875 138.84546875 232.91796875 139.83546875 232.91796875 140.85546875 C229.66796875 141.16796875 229.66796875 141.16796875 225.91796875 140.85546875 C224.55968904 139.2090691 223.22542624 137.54251068 221.91796875 135.85546875 C218.83449049 135.68865766 218.83449049 135.68865766 215.91796875 135.85546875 C215.25796875 134.86546875 214.59796875 133.87546875 213.91796875 132.85546875 C213.13421875 133.68046875 212.35046875 134.50546875 211.54296875 135.35546875 C208.91796875 137.85546875 208.91796875 137.85546875 206.91796875 137.85546875 C206.58796875 139.83546875 206.25796875 141.81546875 205.91796875 143.85546875 C206.55734375 143.95859375 207.19671875 144.06171875 207.85546875 144.16796875 C208.87640625 144.50828125 208.87640625 144.50828125 209.91796875 144.85546875 C210.24796875 145.84546875 210.57796875 146.83546875 210.91796875 147.85546875 C212.79184091 148.65759503 212.79184091 148.65759503 214.98046875 149.04296875 C215.71394531 149.20152344 216.44742187 149.36007812 217.203125 149.5234375 C217.76902344 149.63300781 218.33492187 149.74257813 218.91796875 149.85546875 C218.91796875 150.84546875 218.91796875 151.83546875 218.91796875 152.85546875 C219.90796875 152.85546875 220.89796875 152.85546875 221.91796875 152.85546875 C221.58796875 154.17546875 221.25796875 155.49546875 220.91796875 156.85546875 C217.94796875 156.85546875 214.97796875 156.85546875 211.91796875 156.85546875 C211.58796875 158.17546875 211.25796875 159.49546875 210.91796875 160.85546875 C210.58796875 161.51546875 210.25796875 162.17546875 209.91796875 162.85546875 C207.85546875 163.48046875 207.85546875 163.48046875 205.91796875 163.85546875 C205.91796875 165.17546875 205.91796875 166.49546875 205.91796875 167.85546875 C206.99046875 168.32984375 208.06296875 168.80421875 209.16796875 169.29296875 C209.77125 169.55980469 210.37453125 169.82664062 210.99609375 170.1015625 C213.22389015 171.02296676 213.22389015 171.02296676 216.91796875 171.85546875 C216.91796875 174.82546875 216.91796875 177.79546875 216.91796875 180.85546875 C216.25796875 181.18546875 215.59796875 181.51546875 214.91796875 181.85546875 C215.41552967 184.61188291 215.41552967 184.61188291 216.91796875 186.85546875 C216.95860707 188.5216399 216.96068975 190.1893497 216.91796875 191.85546875 C218.23796875 192.18546875 219.55796875 192.51546875 220.91796875 192.85546875 C221.24796875 197.80546875 221.57796875 202.75546875 221.91796875 207.85546875 C221.25796875 207.85546875 220.59796875 207.85546875 219.91796875 207.85546875 C220.90796875 210.82546875 221.89796875 213.79546875 222.91796875 216.85546875 C221.92796875 217.84546875 220.93796875 218.83546875 219.91796875 219.85546875 C219.58796875 220.84546875 219.25796875 221.83546875 218.91796875 222.85546875 C218.25796875 222.85546875 217.59796875 222.85546875 216.91796875 222.85546875 C216.91796875 220.18880208 216.91796875 217.52213542 216.91796875 214.85546875 C217.57796875 214.85546875 218.23796875 214.85546875 218.91796875 214.85546875 C218.91796875 214.19546875 218.91796875 213.53546875 218.91796875 212.85546875 C215.84196812 214.50939587 215.84196812 214.50939587 215.04296875 216.91796875 C213.91796875 218.85546875 213.91796875 218.85546875 211.29296875 219.60546875 C210.50921875 219.68796875 209.72546875 219.77046875 208.91796875 219.85546875 C208.58796875 221.17546875 208.25796875 222.49546875 207.91796875 223.85546875 C206.59796875 223.52546875 205.27796875 223.19546875 203.91796875 222.85546875 C203.91796875 221.20546875 203.91796875 219.55546875 203.91796875 217.85546875 C203.40234375 218.45359375 202.88671875 219.05171875 202.35546875 219.66796875 C198.45427152 223.16904319 194.12412309 224.5391004 189.10546875 225.85546875 C185.65344423 226.57208051 185.65344423 226.57208051 183.91796875 229.85546875 C184.11062911 232.39260728 184.11062911 232.39260728 184.79296875 235.04296875 C185.09847656 236.39455078 185.09847656 236.39455078 185.41015625 237.7734375 C185.57773437 238.46050781 185.7453125 239.14757812 185.91796875 239.85546875 C183.93796875 240.84546875 183.93796875 240.84546875 181.91796875 241.85546875 C182.04171875 242.59796875 182.16546875 243.34046875 182.29296875 244.10546875 C182.16921875 245.01296875 182.04546875 245.92046875 181.91796875 246.85546875 C179.16796875 248.91796875 179.16796875 248.91796875 175.91796875 250.85546875 C175.31855469 251.51675781 174.71914063 252.17804688 174.1015625 252.859375 C171.40620413 255.32328936 169.25510218 255.84615212 165.73046875 256.73046875 C157.24384995 259.15929904 150.7711291 263.27066335 144.91796875 269.85546875 C144.58796875 270.51546875 144.25796875 271.17546875 143.91796875 271.85546875 C143.25796875 271.85546875 142.59796875 271.85546875 141.91796875 271.85546875 C141.65113281 272.43425781 141.38429688 273.01304687 141.109375 273.609375 C137.56735166 280.28695998 132.65743323 284.26339555 126.015625 287.58984375 C123.80658983 288.92266944 122.78438785 290.09213778 121.29296875 292.16796875 C117.89040159 296.62047092 113.0793198 298.65957313 108.12255859 301.01489258 C104.31472874 302.86663677 104.31472874 302.86663677 101.45703125 305.90234375 C100.76828615 308.01048812 100.76828615 308.01048812 101.04296875 310.91796875 C100.91796875 313.85546875 100.91796875 313.85546875 99.29296875 315.60546875 C94.93305122 317.90016219 91.11606609 318.86753381 86.23046875 319.10546875 C83.93476638 319.2498608 83.93476638 319.2498608 81.91796875 319.85546875 C79.91796875 322.60546875 79.91796875 322.60546875 78.91796875 325.85546875 C77.48046875 328.23046875 77.48046875 328.23046875 75.91796875 329.85546875 C74.59796875 329.85546875 73.27796875 329.85546875 71.91796875 329.85546875 C71.91796875 328.86546875 71.91796875 327.87546875 71.91796875 326.85546875 C67.3936428 328.33457531 65.46048213 329.15993878 62.48046875 332.98046875 C60.40953879 337.1311788 60.35317384 341.30933267 60.91796875 345.85546875 C61.24796875 346.51546875 61.57796875 347.17546875 61.91796875 347.85546875 C61.91211317 349.62678253 61.86329697 351.39804199 61.79296875 353.16796875 C61.72002384 357.87572121 62.30323896 361.71422502 63.60546875 366.23046875 C65.44205281 373.52433114 64.62219251 379.86367863 61.91796875 386.85546875 C60.89141482 388.17859418 59.85533315 389.49435437 58.8125 390.8046875 C54.44057927 397.09019653 55.26831337 404.10850812 55.54296875 411.41796875 C55.5731256 412.82220803 55.60049129 414.22651016 55.625 415.63085938 C55.69530579 419.04069028 55.79368587 422.44724985 55.91796875 425.85546875 C55.30236084 425.81123779 54.68675293 425.76700684 54.05249023 425.72143555 C49.13868144 425.31395947 49.13868144 425.31395947 45.015625 427.5 C44.67402344 428.21542969 44.33242188 428.93085937 43.98046875 429.66796875 C43.44099609 430.72951172 43.44099609 430.72951172 42.890625 431.8125 C42.56964844 432.48667969 42.24867188 433.16085937 41.91796875 433.85546875 C41.25796875 434.84546875 40.59796875 435.83546875 39.91796875 436.85546875 C40.2332507 440.21847617 41.53506107 441.59459677 43.91796875 443.85546875 C43.36109375 443.89285156 42.80421875 443.93023438 42.23046875 443.96875 C34.06789169 444.44229302 34.06789169 444.44229302 26.91796875 447.85546875 C25.99633664 450.36533719 25.99633664 450.36533719 25.48046875 453.23046875 C24.43085607 458.37629713 24.43085607 458.37629713 21.95703125 460.6875 C17.54111284 463.23288819 14.08136883 464.4700002 8.91796875 463.85546875 C-2.39548508 456.56036057 -7.97591364 445.73979021 -10.9765625 433.08203125 C-12.02561359 428.85977267 -13.45761466 424.84923073 -15.01953125 420.79296875 C-15.27154297 420.12458984 -15.52355469 419.45621094 -15.78320312 418.76757812 C-19.06010068 409.77786884 -19.06010068 409.77786884 -24.01953125 401.66796875 C-24.54160156 400.99121094 -25.06367188 400.31445312 -25.6015625 399.6171875 C-27.09831611 397.74762291 -27.09831611 397.74762291 -29.20703125 395.98046875 C-32.29326267 392.4827398 -33.53263774 388.2066822 -35.08203125 383.85546875 C-35.35015625 383.13101562 -35.61828125 382.4065625 -35.89453125 381.66015625 C-37.42583095 377.33742481 -38.50126412 373.02813295 -39.45703125 368.54296875 C-40.72606079 362.77465267 -42.67801209 357.59893325 -45.09375 352.21875 C-46.08203125 349.85546875 -46.08203125 349.85546875 -46.08203125 347.85546875 C-47.07203125 347.52546875 -48.06203125 347.19546875 -49.08203125 346.85546875 C-49.08203125 345.86546875 -49.08203125 344.87546875 -49.08203125 343.85546875 C-49.74203125 343.85546875 -50.40203125 343.85546875 -51.08203125 343.85546875 C-51.20320313 343.22898437 -51.324375 342.6025 -51.44921875 341.95703125 C-51.61679688 341.13976562 -51.784375 340.3225 -51.95703125 339.48046875 C-52.11945313 338.66835938 -52.281875 337.85625 -52.44921875 337.01953125 C-52.94862057 334.66872952 -52.94862057 334.66872952 -55.08203125 332.85546875 C-54.70703125 330.73046875 -54.70703125 330.73046875 -54.08203125 328.85546875 C-55.07203125 328.52546875 -56.06203125 328.19546875 -57.08203125 327.85546875 C-60.25798508 325.45015077 -60.77739317 322.98521014 -61.58203125 319.16796875 C-61.83082031 318.01039063 -62.07960938 316.8528125 -62.3359375 315.66015625 C-62.84529571 313.06269604 -63.33602383 310.46908171 -63.796875 307.86328125 C-64.03729085 306.50642713 -64.27818017 305.14965683 -64.51953125 303.79296875 C-64.64142822 303.10702637 -64.7633252 302.42108398 -64.88891602 301.71435547 C-65.62649334 297.74875371 -66.61439559 294.06927084 -68.01953125 290.29296875 C-70.10725751 284.40202023 -71.27696114 278.42714348 -72.39453125 272.29296875 C-72.57814209 271.33511475 -72.76175293 270.37726074 -72.95092773 269.39038086 C-74.11625406 262.66946917 -74.01860057 256.60551046 -73.08203125 249.85546875 C-70.08203125 248.85546875 -70.08203125 248.85546875 -67.64453125 249.35546875 C-65.01368874 249.86880387 -63.58879098 249.69105533 -61.08203125 248.85546875 C-60.58703125 244.89546875 -60.58703125 244.89546875 -60.08203125 240.85546875 C-59.09203125 240.85546875 -58.10203125 240.85546875 -57.08203125 240.85546875 C-59.06203125 239.86546875 -59.06203125 239.86546875 -61.08203125 238.85546875 C-61.41203125 241.82546875 -61.74203125 244.79546875 -62.08203125 247.85546875 C-63.07203125 248.18546875 -64.06203125 248.51546875 -65.08203125 248.85546875 C-65.41203125 248.19546875 -65.74203125 247.53546875 -66.08203125 246.85546875 C-68.1066638 246.20333583 -68.1066638 246.20333583 -70.08203125 245.85546875 C-70.26378906 245.13101563 -70.44554687 244.4065625 -70.6328125 243.66015625 C-72.25053548 237.4239225 -72.25053548 237.4239225 -74.83203125 231.54296875 C-76.38030254 228.21418547 -75.99680367 226.34823618 -75.08203125 222.85546875 C-74.09203125 222.85546875 -73.10203125 222.85546875 -72.08203125 222.85546875 C-72.08203125 222.19546875 -72.08203125 221.53546875 -72.08203125 220.85546875 C-73.73203125 220.85546875 -75.38203125 220.85546875 -77.08203125 220.85546875 C-77.08203125 220.19546875 -77.08203125 219.53546875 -77.08203125 218.85546875 C-76.42203125 218.85546875 -75.76203125 218.85546875 -75.08203125 218.85546875 C-75.08203125 218.19546875 -75.08203125 217.53546875 -75.08203125 216.85546875 C-75.74203125 216.85546875 -76.40203125 216.85546875 -77.08203125 216.85546875 C-76.76953125 214.91796875 -76.76953125 214.91796875 -76.08203125 212.85546875 C-75.09203125 212.52546875 -74.10203125 212.19546875 -73.08203125 211.85546875 C-75.72203125 211.19546875 -78.36203125 210.53546875 -81.08203125 209.85546875 C-81.13810547 211.30179687 -81.13810547 211.30179687 -81.1953125 212.77734375 C-81.26105469 214.040625 -81.32679688 215.30390625 -81.39453125 216.60546875 C-81.45253906 217.8584375 -81.51054687 219.11140625 -81.5703125 220.40234375 C-82.09850563 223.96663937 -82.76973531 225.21624151 -85.08203125 227.85546875 C-85.41203125 228.84546875 -85.74203125 229.83546875 -86.08203125 230.85546875 C-103.65299475 240.43582742 -103.65299475 240.43582742 -111.08203125 238.85546875 C-117.86833533 235.82552735 -122.59602875 231.82271318 -126.6953125 225.69140625 C-128.54696305 223.23992524 -130.72632974 221.87600724 -133.26953125 220.20703125 C-136.70594376 217.64453399 -139.65441482 214.38252242 -142.08203125 210.85546875 C-142.08203125 209.86546875 -142.08203125 208.87546875 -142.08203125 207.85546875 C-140.76203125 207.85546875 -139.44203125 207.85546875 -138.08203125 207.85546875 C-138.08203125 208.84546875 -138.08203125 209.83546875 -138.08203125 210.85546875 C-135.93504923 210.21346439 -133.78947172 209.56676129 -131.64453125 208.91796875 C-129.85208984 208.37849609 -129.85208984 208.37849609 -128.0234375 207.828125 C-125.2233558 207.14657733 -125.2233558 207.14657733 -124.08203125 205.85546875 C-122.4158601 205.81483043 -120.7481503 205.81274775 -119.08203125 205.85546875 C-118.99953125 205.13359375 -118.91703125 204.41171875 -118.83203125 203.66796875 C-117.93392475 200.30006938 -116.30327189 198.49874512 -114.08203125 195.85546875 C-115.04882812 196.22800781 -116.015625 196.60054687 -117.01171875 196.984375 C-131.2153019 202.23122101 -131.2153019 202.23122101 -139.08203125 199.85546875 C-140.07203125 199.19546875 -141.06203125 198.53546875 -142.08203125 197.85546875 C-142.08203125 197.19546875 -142.08203125 196.53546875 -142.08203125 195.85546875 C-142.84515625 195.83484375 -143.60828125 195.81421875 -144.39453125 195.79296875 C-147.08203125 194.85546875 -147.08203125 194.85546875 -148.89453125 191.54296875 C-150.08203125 187.85546875 -150.08203125 187.85546875 -150.08203125 183.85546875 C-149.42203125 183.85546875 -148.76203125 183.85546875 -148.08203125 183.85546875 C-147.58703125 181.87546875 -147.58703125 181.87546875 -147.08203125 179.85546875 C-146.42203125 179.85546875 -145.76203125 179.85546875 -145.08203125 179.85546875 C-145.08203125 178.20546875 -145.08203125 176.55546875 -145.08203125 174.85546875 C-141.80074247 173.87342033 -138.81227604 173.7213426 -135.39453125 173.73046875 C-134.42128906 173.72789062 -133.44804687 173.7253125 -132.4453125 173.72265625 C-130.08203125 173.85546875 -130.08203125 173.85546875 -129.08203125 174.85546875 C-126.75385161 175.22307606 -124.42019275 175.55788456 -122.08203125 175.85546875 C-121.75203125 174.86546875 -121.42203125 173.87546875 -121.08203125 172.85546875 C-118.77203125 172.52546875 -116.46203125 172.19546875 -114.08203125 171.85546875 C-113.75203125 172.51546875 -113.42203125 173.17546875 -113.08203125 173.85546875 C-111.4159122 173.89818975 -109.7482024 173.89610707 -108.08203125 173.85546875 C-106.03070301 171.80414051 -106.33422921 168.19204324 -106.08203125 165.4296875 C-106.08203125 160.98505278 -107.98240056 158.15873476 -110.76953125 154.85546875 C-112.55551362 152.13397181 -112.29904745 150.03837308 -112.08203125 146.85546875 C-113.17515625 146.93796875 -114.26828125 147.02046875 -115.39453125 147.10546875 C-119.08203125 146.85546875 -119.08203125 146.85546875 -120.80078125 145.23046875 C-122.44579971 142.18116623 -122.38184244 140.04967861 -122.26953125 136.60546875 C-122.24246094 135.5278125 -122.21539062 134.45015625 -122.1875 133.33984375 C-122.13529297 132.11007812 -122.13529297 132.11007812 -122.08203125 130.85546875 C-123.34015625 130.56671875 -124.59828125 130.27796875 -125.89453125 129.98046875 C-128.93597115 129.28243336 -130.38873003 128.6510029 -133.08203125 126.85546875 C-133.61351455 122.83138088 -133.57335925 120.63795409 -131.39453125 117.16796875 C-129.08203125 114.85546875 -129.08203125 114.85546875 -126.51953125 112.91796875 C-123.67029604 110.50707742 -122.65059674 108.20649503 -121.08203125 104.85546875 C-119.76953125 102.98046875 -119.76953125 102.98046875 -118.08203125 101.85546875 C-114.98701917 101.6028147 -112.88073152 101.45611862 -110.08203125 102.85546875 C-110.08203125 104.17546875 -110.08203125 105.49546875 -110.08203125 106.85546875 C-109.03015625 106.56671875 -107.97828125 106.27796875 -106.89453125 105.98046875 C-101.03433996 104.5022223 -95.05856135 103.71186178 -89.08203125 102.85546875 C-88.95570313 102.08074219 -88.829375 101.30601562 -88.69921875 100.5078125 C-87.91742507 97.1480789 -86.27165497 95.49589736 -84.08203125 92.85546875 C-83.71078125 91.86546875 -83.33953125 90.87546875 -82.95703125 89.85546875 C-80.83194169 86.45532545 -79.84373264 86.122768 -76.26953125 84.60546875 C-70.18076846 81.84511127 -67.75931713 77.83838312 -65.08203125 71.85546875 C-64.62973414 70.40165663 -64.19069527 68.94360348 -63.76953125 67.48046875 C-61.86935053 63.39859906 -61.41448698 63.2511289 -57.45703125 61.73046875 C-56.26400391 61.30121094 -56.26400391 61.30121094 -55.046875 60.86328125 C-52.68932859 59.94520219 -52.68932859 59.94520219 -52.01953125 56.60546875 C-52.04015625 55.69796875 -52.06078125 54.79046875 -52.08203125 53.85546875 C-51.09203125 53.52546875 -50.10203125 53.19546875 -49.08203125 52.85546875 C-48.37528496 51.54293993 -47.72018469 50.20268158 -47.08203125 48.85546875 C-46.21578125 47.88609375 -45.34953125 46.91671875 -44.45703125 45.91796875 C-41.14353053 41.50315998 -41.99936819 37.12084252 -42.23046875 31.8359375 C-42.07651481 28.74470447 -41.84476362 27.69923638 -39.70703125 25.54296875 C-37.08203125 23.85546875 -37.08203125 23.85546875 -35.08203125 23.85546875 C-35.08203125 23.19546875 -35.08203125 22.53546875 -35.08203125 21.85546875 C-32.77203125 21.85546875 -30.46203125 21.85546875 -28.08203125 21.85546875 C-28.08203125 20.53546875 -28.08203125 19.21546875 -28.08203125 17.85546875 C-29.56703125 17.36046875 -29.56703125 17.36046875 -31.08203125 16.85546875 C-31.08203125 16.19546875 -31.08203125 15.53546875 -31.08203125 14.85546875 C-29.25671875 15.19578125 -29.25671875 15.19578125 -27.39453125 15.54296875 C-24.28444212 15.92897272 -23.14995044 15.88292544 -20.14453125 14.66796875 C-17.99972984 13.02681428 -17.99972984 13.02681428 -17.14453125 10.85546875 C-16.87827117 8.53232223 -16.87827117 8.53232223 -19.08203125 5.85546875 C-15.74869792 4.18880208 -12.41536458 2.52213542 -9.08203125 0.85546875 C-8.38078125 0.45972656 -7.67953125 0.06398437 -6.95703125 -0.34375 C-4.39868699 -1.4363762 -2.58352924 -0.82078008 0 0 Z " fill="#E3E5E9" transform="translate(302.08203125,165.14453125)"/>
<path d="M0 0 C2.78952915 1.90504429 3.65702983 3.17687159 4.9375 6.25 C5.02790705 10.22791007 3.58230343 13.39735433 2 17 C1.34 17 0.68 17 0 17 C0 18.65 0 20.3 0 22 C-0.969375 22.12375 -1.93875 22.2475 -2.9375 22.375 C-4.4534375 22.684375 -4.4534375 22.684375 -6 23 C-6.33 23.66 -6.66 24.32 -7 25 C-7.66 25 -8.32 25 -9 25 C-8.79375 26.093125 -8.5875 27.18625 -8.375 28.3125 C-8 32 -8 32 -10 35 C-10.1376678 37.42054023 -10.1376678 37.42054023 -9.8125 40 C-9.73644531 40.86625 -9.66039062 41.7325 -9.58203125 42.625 C-8.92789656 45.29422076 -8.0964688 46.28213877 -6 48 C-6 47.34 -6 46.68 -6 46 C-0.25 47.875 -0.25 47.875 2 49 C2 48.34 2 47.68 2 47 C2.66 47 3.32 47 4 47 C3.67 44.69 3.34 42.38 3 40 C2.01 39.67 1.02 39.34 0 39 C0 38.01 0 37.02 0 36 C-0.66 36 -1.32 36 -2 36 C-2.99 31.545 -2.99 31.545 -4 27 C-0.8078874 27.79802815 1.98155093 28.74231289 5 30 C5 30.66 5 31.32 5 32 C9.95 32 14.9 32 20 32 C20.66 30.68 21.32 29.36 22 28 C24.625 27.25 24.625 27.25 27 27 C27 27.66 27 28.32 27 29 C27.66 29 28.32 29 29 29 C29.33 30.32 29.66 31.64 30 33 C33.465 32.505 33.465 32.505 37 32 C37 33.32 37 34.64 37 36 C40.48809191 35.22969878 40.48809191 35.22969878 44 34 C44.33 33.01 44.66 32.02 45 31 C46.98 31 48.96 31 51 31 C51 31.66 51 32.32 51 33 C52.65 33.66 54.3 34.32 56 35 C56 35.66 56 36.32 56 37 C56.969375 37.12375 57.93875 37.2475 58.9375 37.375 C59.948125 37.58125 60.95875 37.7875 62 38 C62.33 38.66 62.66 39.32 63 40 C65.64 40 68.28 40 71 40 C71.65156409 44.72383963 72.11950637 49.21974517 72 54 C75.96 54.495 75.96 54.495 80 55 C80 54.34 80 53.68 80 53 C80.66 53 81.32 53 82 53 C82 52.34 82 51.68 82 51 C82.99 51 83.98 51 85 51 C85.33 51.99 85.66 52.98 86 54 C86.99 54.66 87.98 55.32 89 56 C89.33 56.99 89.66 57.98 90 59 C90.6496875 59.30035156 91.299375 59.60070312 91.96875 59.91015625 C94 61 94 61 94.90625 63.05859375 C95.20015625 64.23615234 95.20015625 64.23615234 95.5 65.4375 C96.58611311 69.17297602 96.58611311 69.17297602 99.1875 72.0625 C99.785625 72.371875 100.38375 72.68125 101 73 C99.37660195 74.70884005 97.70680947 76.37446717 96 78 C95.34 78 94.68 78 94 78 C94 79.32 94 80.64 94 82 C91.49515403 84.41847197 90.53986194 85 87 85 C86.87882812 85.56847656 86.75765625 86.13695312 86.6328125 86.72265625 C83.43687231 101.44856528 83.43687231 101.44856528 80 105 C77.51953125 105.390625 77.51953125 105.390625 74.8125 105.25 C73.91144531 105.21390625 73.01039063 105.1778125 72.08203125 105.140625 C71.39496094 105.09421875 70.70789063 105.0478125 70 105 C69.67 106.32 69.34 107.64 69 109 C66.525 109.495 66.525 109.495 64 110 C64.165 110.969375 64.33 111.93875 64.5 112.9375 C65.13396273 117.29487763 65.0896672 121.60630704 65 126 C66.65 126 68.3 126 70 126 C70.33 126.66 70.66 127.32 71 128 C68.69 128 66.38 128 64 128 C64 127.34 64 126.68 64 126 C61.36 125.67 58.72 125.34 56 125 C56.34786708 126.97536745 56.34786708 126.97536745 57 129 C57.66 129.33 58.32 129.66 59 130 C59.88671875 132.765625 59.88671875 132.765625 60.6875 136.25 C60.95949219 137.38953125 61.23148438 138.5290625 61.51171875 139.703125 C61.98862776 142.92321461 62.06847684 144.94101048 61 148 C60.01 148.66 59.02 149.32 58 150 C57.67 150.99 57.34 151.98 57 153 C54.70832354 155.9791794 52.66464055 156.5047783 49 157 C48.7834375 158.423125 48.7834375 158.423125 48.5625 159.875 C48 163 48 163 47 165 C43.9375 165.625 43.9375 165.625 41 166 C40.67 163.69 40.34 161.38 40 159 C39.01 159 38.02 159 37 159 C36.38125 158.05125 35.7625 157.1025 35.125 156.125 C32.8776017 152.8200025 31.75745002 152.04373612 28 151 C27.78257119 147.30371031 27.79235342 144.54218828 29.125 141.0625 C31 139 31 139 34.1875 138.6875 C35.5796875 138.8421875 35.5796875 138.8421875 37 139 C37.33 137.68 37.66 136.36 38 135 C37.01 134.319375 36.02 133.63875 35 132.9375 C33.3359375 131.578125 33.3359375 131.578125 32 130 C31.625 126.1875 31.625 126.1875 32 123 C31.67 123.33 31.34 123.66 31 124 C31.25248627 127.51745287 31.25248627 127.51745287 32 131 C32.66 131.33 33.32 131.66 34 132 C34 132.66 34 133.32 34 134 C34.99 134.33 35.98 134.66 37 135 C36.67 135.99 36.34 136.98 36 138 C35.2575 137.87625 34.515 137.7525 33.75 137.625 C30.71813084 137.72424607 30.71813084 137.72424607 28.75 140.6875 C27.20454685 143.61282204 26.38249024 145.74883293 26 149 C24.68 148.67 23.36 148.34 22 148 C21.83126522 146.56274129 21.66509263 145.12518162 21.5 143.6875 C21.4071875 142.88699219 21.314375 142.08648437 21.21875 141.26171875 C21 139 21 139 21 136 C20.34 135.67 19.68 135.34 19 135 C19 134.34 19 133.68 19 133 C17.01432292 133.29296875 15.02864583 133.5859375 13.04296875 133.87890625 C11 134 11 134 8 133 C7.67 133.66 7.34 134.32 7 135 C6.01 134.67 5.02 134.34 4 134 C4 133.34 4 132.68 4 132 C3.34 132 2.68 132 2 132 C2 131.34 2 130.68 2 130 C-1.3 129.67 -4.6 129.34 -8 129 C-8.12375 130.093125 -8.2475 131.18625 -8.375 132.3125 C-9 136 -9 136 -11 139 C-12.98 138.67 -14.96 138.34 -17 138 C-17.144375 138.78375 -17.28875 139.5675 -17.4375 140.375 C-18 143 -18 143 -19 145 C-18.34 145 -17.68 145 -17 145 C-17.66 147.31 -18.32 149.62 -19 152 C-19.99 152 -20.98 152 -22 152 C-22.33 153.65 -22.66 155.3 -23 157 C-23.66 156.34 -24.32 155.68 -25 155 C-27.06874034 154.3574765 -27.06874034 154.3574765 -29 154 C-29.33 155.32 -29.66 156.64 -30 158 C-31.32 158.33 -32.64 158.66 -34 159 C-34.185625 160.1446875 -34.185625 160.1446875 -34.375 161.3125 C-35 164 -35 164 -37 167 C-38.65 166.67 -40.3 166.34 -42 166 C-42 166.99 -42 167.98 -42 169 C-42.99 169 -43.98 169 -45 169 C-45 170.65 -45 172.3 -45 174 C-47.31 174 -49.62 174 -52 174 C-52 173.34 -52 172.68 -52 172 C-53.98 171.67 -55.96 171.34 -58 171 C-57.67 174.3 -57.34 177.6 -57 181 C-57.88042969 181.01417969 -58.76085937 181.02835938 -59.66796875 181.04296875 C-66.86982269 181.09158205 -66.86982269 181.09158205 -72.875 184.5 C-73.57625 185.325 -74.2775 186.15 -75 187 C-78.8125 187.8125 -78.8125 187.8125 -82 188 C-81.67 189.98 -81.34 191.96 -81 194 C-80.34 194 -79.68 194 -79 194 C-79.495 197.96 -79.495 197.96 -80 202 C-81.65 202 -83.3 202 -85 202 C-85 202.66 -85 203.32 -85 204 C-84.34 204.33 -83.68 204.66 -83 205 C-81.29690079 208.66166329 -80.84881804 210.41686959 -81.875 214.375 C-82.24625 215.24125 -82.6175 216.1075 -83 217 C-84.89453125 216.73828125 -84.89453125 216.73828125 -87 216 C-88.01171875 214.29296875 -88.01171875 214.29296875 -88.6875 212.1875 C-89.03361328 211.15689453 -89.03361328 211.15689453 -89.38671875 210.10546875 C-89.80166099 208.68092184 -90.17840789 207.24478465 -90.51953125 205.80078125 C-91.16738479 203.37264724 -92.01169495 202.98986283 -93.96484375 201.296875 C-96.3718991 198.58027511 -96.84880945 196.78703242 -97.5625 193.25 C-97.80226563 192.10144531 -98.04203125 190.95289063 -98.2890625 189.76953125 C-98.77649137 187.18508695 -99.25245501 184.60120276 -99.7109375 182.01171875 C-99.95252957 180.65353978 -100.19472218 179.29546751 -100.4375 177.9375 C-100.55947754 177.25147705 -100.68145508 176.5654541 -100.80712891 175.85864258 C-101.54432178 171.89303699 -102.53239539 168.21371864 -103.9375 164.4375 C-106.02522626 158.54655148 -107.19492989 152.57167473 -108.3125 146.4375 C-108.49611084 145.479646 -108.67972168 144.52179199 -108.86889648 143.53491211 C-110.03422281 136.81400042 -109.93656932 130.75004171 -109 124 C-106 123 -106 123 -103.5625 123.5 C-100.93165749 124.01333512 -99.50675973 123.83558658 -97 123 C-96.67 120.36 -96.34 117.72 -96 115 C-95.01 115 -94.02 115 -93 115 C-94.98 114.01 -94.98 114.01 -97 113 C-97.33 115.97 -97.66 118.94 -98 122 C-99.485 122.495 -99.485 122.495 -101 123 C-101.33 122.34 -101.66 121.68 -102 121 C-104.02463255 120.34786708 -104.02463255 120.34786708 -106 120 C-106.18175781 119.27554688 -106.36351562 118.55109375 -106.55078125 117.8046875 C-108.16850423 111.56845375 -108.16850423 111.56845375 -110.75 105.6875 C-112.29827129 102.35871672 -111.91477242 100.49276743 -111 97 C-110.01 97 -109.02 97 -108 97 C-108 96.34 -108 95.68 -108 95 C-109.65 95 -111.3 95 -113 95 C-113 94.34 -113 93.68 -113 93 C-112.34 93 -111.68 93 -111 93 C-111 92.34 -111 91.68 -111 91 C-111.66 91 -112.32 91 -113 91 C-112.6875 89.0625 -112.6875 89.0625 -112 87 C-111.01 86.67 -110.02 86.34 -109 86 C-111.64 85.34 -114.28 84.68 -117 84 C-117.03738281 84.96421875 -117.07476562 85.9284375 -117.11328125 86.921875 C-117.17902344 88.18515625 -117.24476563 89.4484375 -117.3125 90.75 C-117.37050781 92.00296875 -117.42851562 93.2559375 -117.48828125 94.546875 C-118.01647438 98.11117062 -118.68770406 99.36077276 -121 102 C-121.495 103.485 -121.495 103.485 -122 105 C-139.5709635 114.58035867 -139.5709635 114.58035867 -147 113 C-153.78630408 109.9700586 -158.5139975 105.96724443 -162.61328125 99.8359375 C-164.4649318 97.38445649 -166.64429849 96.02053849 -169.1875 94.3515625 C-172.62391251 91.78906524 -175.57238357 88.52705367 -178 85 C-178 84.01 -178 83.02 -178 82 C-176.68 82 -175.36 82 -174 82 C-174 82.99 -174 83.98 -174 85 C-171.85301798 84.35799564 -169.70744047 83.71129254 -167.5625 83.0625 C-165.77005859 82.52302734 -165.77005859 82.52302734 -163.94140625 81.97265625 C-161.14132455 81.29110858 -161.14132455 81.29110858 -160 80 C-158.33382885 79.95936168 -156.66611905 79.957279 -155 80 C-154.9175 79.278125 -154.835 78.55625 -154.75 77.8125 C-153.8518935 74.44460063 -152.22124064 72.64327637 -150 70 C-150.96679688 70.37253906 -151.93359375 70.74507813 -152.9296875 71.12890625 C-167.13327065 76.37575226 -167.13327065 76.37575226 -175 74 C-175.99 73.34 -176.98 72.68 -178 72 C-178 71.34 -178 70.68 -178 70 C-178.763125 69.979375 -179.52625 69.95875 -180.3125 69.9375 C-183 69 -183 69 -184.8125 65.6875 C-186 62 -186 62 -186 58 C-185.34 58 -184.68 58 -184 58 C-183.67 56.68 -183.34 55.36 -183 54 C-182.34 54 -181.68 54 -181 54 C-181 52.35 -181 50.7 -181 49 C-177.71871122 48.01795158 -174.73024479 47.86587385 -171.3125 47.875 C-170.33925781 47.87242187 -169.36601562 47.86984375 -168.36328125 47.8671875 C-166 48 -166 48 -165 49 C-162.67182036 49.36760731 -160.3381615 49.70241581 -158 50 C-157.67 49.01 -157.34 48.02 -157 47 C-153.535 46.505 -153.535 46.505 -150 46 C-149.67 46.66 -149.34 47.32 -149 48 C-146.58354218 48.16687448 -146.58354218 48.16687448 -144 48 C-143.34 47.34 -142.68 46.68 -142 46 C-141.01 46 -140.02 46 -139 46 C-139 45.34 -139 44.68 -139 44 C-139.66 44 -140.32 44 -141 44 C-140.67 42.68 -140.34 41.36 -140 40 C-121.05479452 39.63013699 -121.05479452 39.63013699 -116 43 C-116 43.66 -116 44.32 -116 45 C-114.948125 44.6596875 -114.948125 44.6596875 -113.875 44.3125 C-110.12299725 43.90467361 -108.20568943 45.13622707 -105 47 C-104.67 46.01 -104.34 45.02 -104 44 C-103.22227595 46.33317216 -102.57584432 48.61435923 -102 51 C-100.02 51.495 -100.02 51.495 -98 52 C-98 53.98 -98 55.96 -98 58 C-96.68 58.66 -95.36 59.32 -94 60 C-94 60.99 -94 61.98 -94 63 C-92.68 63 -91.36 63 -90 63 C-89.67 63.66 -89.34 64.32 -89 65 C-86.98330173 66.13350534 -86.98330173 66.13350534 -85 67 C-85 67.66 -85 68.32 -85 69 C-83.02 69.495 -83.02 69.495 -81 70 C-81 70.99 -81 71.98 -81 73 C-80.34 73 -79.68 73 -79 73 C-79.495 74.98 -79.495 74.98 -80 77 C-80.99 77 -81.98 77 -83 77 C-83 77.66 -83 78.32 -83 79 C-83.99 79.495 -83.99 79.495 -85 80 C-84.94779297 80.92232422 -84.94779297 80.92232422 -84.89453125 81.86328125 C-84.86746094 82.67152344 -84.84039062 83.47976563 -84.8125 84.3125 C-84.76029297 85.51326172 -84.76029297 85.51326172 -84.70703125 86.73828125 C-85 89 -85 89 -86.38671875 90.79296875 C-88 92 -88 92 -90 92 C-90 94.31 -90 96.62 -90 99 C-88.515 99.495 -88.515 99.495 -87 100 C-88.98 100.99 -88.98 100.99 -91 102 C-91 102.66 -91 103.32 -91 104 C-91.66 104.66 -92.32 105.32 -93 106 C-91.515 106.495 -91.515 106.495 -90 107 C-89.5978125 106.1028125 -89.5978125 106.1028125 -89.1875 105.1875 C-87.97699666 102.95762543 -87.008621 101.54509308 -85 100 C-83.68 100 -82.36 100 -81 100 C-81 99.01 -81 98.02 -81 97 C-83.64 97.33 -86.28 97.66 -89 98 C-89 96.35 -89 94.7 -89 93 C-85.7 92.01 -82.4 91.02 -79 90 C-78 91 -78 91 -78 96 C-74.7 96.66 -71.4 97.32 -68 98 C-68 97.67 -68 97.34 -68 97 C-70.97 96.34 -73.94 95.68 -77 95 C-77.33 93.35 -77.66 91.7 -78 90 C-79.98 90 -81.96 90 -84 90 C-84.33 88.02 -84.66 86.04 -85 84 C-84.01 84 -83.02 84 -82 84 C-82 83.01 -82 82.02 -82 81 C-82.66 80.67 -83.32 80.34 -84 80 C-83.34 80 -82.68 80 -82 80 C-82 79.34 -82 78.68 -82 78 C-81.01 78 -80.02 78 -79 78 C-78.67 76.02 -78.34 74.04 -78 72 C-78.66 72 -79.32 72 -80 72 C-80 71.34 -80 70.68 -80 70 C-78.68 69.67 -77.36 69.34 -76 69 C-76.12375 68.278125 -76.2475 67.55625 -76.375 66.8125 C-76 64 -76 64 -73.0625 61.6875 C-72.5159375 61.28015625 -71.969375 60.8728125 -71.40625 60.453125 C-68.73165444 57.68937625 -69.05917697 54.72814904 -69 51 C-69.10275315 48.64330947 -69.10275315 48.64330947 -70 47 C-71.485 46.505 -71.485 46.505 -73 46 C-72.34 45.01 -71.68 44.02 -71 43 C-71.66 43 -72.32 43 -73 43 C-73 42.01 -73 41.02 -73 40 C-72.401875 39.938125 -71.80375 39.87625 -71.1875 39.8125 C-68.14898647 38.68390926 -67.60629777 36.7237223 -66 34 C-65.01 34 -64.02 34 -63 34 C-63 34.66 -63 35.32 -63 36 C-63.66 36 -64.32 36 -65 36 C-65 37.32 -65 38.64 -65 40 C-61.37 39.67 -57.74 39.34 -54 39 C-53.67 40.65 -53.34 42.3 -53 44 C-53.99 44 -54.98 44 -56 44 C-55.67 44.66 -55.34 45.32 -55 46 C-54.960008 47.99960012 -54.95653201 50.00047242 -55 52 C-56.98 52 -58.96 52 -61 52 C-61 52.99 -61 53.98 -61 55 C-60.34 55 -59.68 55 -59 55 C-59 55.66 -59 56.32 -59 57 C-58.05125 56.505 -57.1025 56.01 -56.125 55.5 C-53 54 -53 54 -51 54 C-51 53.34 -51 52.68 -51 52 C-49.40890107 49.91231605 -48.53817459 49.08465668 -45.9140625 48.671875 C-45.15867187 48.69765625 -44.40328125 48.7234375 -43.625 48.75 C-42.43970703 48.78867187 -42.43970703 48.78867187 -41.23046875 48.828125 C-38.75904936 49.01856712 -36.40112063 49.38035597 -34 50 C-34.33 47.69 -34.66 45.38 -35 43 C-33.68 43.33 -32.36 43.66 -31 44 C-31.57452746 40.06924356 -31.57452746 40.06924356 -34 37 C-33.625 34.875 -33.625 34.875 -33 33 C-29.535 32.505 -29.535 32.505 -26 32 C-26 29.69 -26 27.38 -26 25 C-26.66 25 -27.32 25 -28 25 C-28 25.66 -28 26.32 -28 27 C-29.60379341 27.05416188 -31.20811406 27.09286638 -32.8125 27.125 C-33.70582031 27.14820313 -34.59914063 27.17140625 -35.51953125 27.1953125 C-38 27 -38 27 -41 25 C-41.5 22.0625 -41.5 22.0625 -41 19 C-38.75 17.375 -38.75 17.375 -36 16 C-35.4225 15.38125 -34.845 14.7625 -34.25 14.125 C-31.53697189 11.56269567 -28.66398525 10.04814893 -25.3828125 8.3046875 C-22.38905855 6.66548452 -19.56245559 4.81439931 -16.7265625 2.91796875 C-15 2 -15 2 -12 2 C-12 1.34 -12 0.68 -12 0 C-8.28962301 -1.85518849 -3.95386484 -0.82398799 0 0 Z " fill="#603794" transform="translate(338,291)"/>
<path d="M0 0 C0 0.66 0 1.32 0 2 C1.258125 1.608125 2.51625 1.21625 3.8125 0.8125 C6.01953125 0.25390625 6.01953125 0.25390625 8 0 C10 1.25 10 1.25 11 3 C11 3.66 11 4.32 11 5 C11.9590625 5.4021875 11.9590625 5.4021875 12.9375 5.8125 C15 7 15 7 16 10 C18.31543043 10.72640955 20.65269935 11.38431458 23 12 C26.62128909 13.60172402 29.38460391 15.02795899 32 18 C33.0828125 18.99 33.0828125 18.99 34.1875 20 C36 22 36 22 36 25 C37.051875 25.268125 38.10375 25.53625 39.1875 25.8125 C42.60387394 26.87661647 45.15896298 27.84769923 48 30 C48 30.99 48 31.98 48 33 C55.23119978 31.52093045 55.23119978 31.52093045 61.5 27.9375 C65.43030969 24.89150999 70.10639304 24.38633739 75 24 C76.485 24.495 76.485 24.495 78 25 C78.495 23.515 78.495 23.515 79 22 C81.20516659 22.49003702 83.21515143 23.08722355 85.3125 23.9375 C88.48699869 25.19253437 91.71013905 26.09690092 95 27 C95 27.66 95 28.32 95 29 C96.32 29.33 97.64 29.66 99 30 C100.3971323 34.44037857 99.1716426 37.88035795 97.8125 42.1875 C97.60302734 42.92419922 97.39355469 43.66089844 97.17773438 44.41992188 C96.51953125 46.54296875 96.51953125 46.54296875 95 50 C93.66987465 50.34591248 92.33653735 50.6797551 91 51 C90.67 51.99 90.34 52.98 90 54 C88.35 54 86.7 54 85 54 C85.2475 54.9075 85.495 55.815 85.75 56.75 C86 60 86 60 84.5625 62.375 C80.87877417 64.71102126 78.31376798 64.28758453 74 64 C74.495 64.763125 74.99 65.52625 75.5 66.3125 C77 69 77 69 77 72 C76.01 72 75.02 72 74 72 C74.33 73.32 74.66 74.64 75 76 C77.97 76.66 80.94 77.32 84 78 C83.95875 79.093125 83.9175 80.18625 83.875 81.3125 C83.67925334 85.08892229 83.67925334 85.08892229 86 88 C85.625 90.6875 85.625 90.6875 85 93 C82.92446352 93.5534764 81.15634036 94 79 94 C78.505 95.485 78.505 95.485 78 97 C76.02 97 74.04 97 72 97 C71.34 95.02 70.68 93.04 70 91 C68.8553125 91.309375 68.8553125 91.309375 67.6875 91.625 C65 92 65 92 62 90 C58.85778033 90.31506627 58.85778033 90.31506627 56 91 C55.01 89.02 54.02 87.04 53 85 C52.443125 85.21398437 51.88625 85.42796875 51.3125 85.6484375 C48.77503243 86.44568238 46.66638855 86.94609168 44 87 C41.65436849 85.73631744 39.85032675 84.21981655 37.828125 82.4921875 C35.12552967 80.28622294 33.48918617 79.78637636 30 80 C26.83432541 81.41928668 23.94875323 83.18249573 21 85 C19.67403692 85.68120784 18.34291399 86.35284914 17 87 C17.99 87.99 17.99 87.99 19 89 C18.77127803 91.36346039 18.17723123 92.7481451 16.8125 94.6875 C13.27122731 97.25186988 9.71914729 97.0770515 5.5 96.625 C4.345 96.41875 3.19 96.2125 2 96 C0.2984375 95.7215625 0.2984375 95.7215625 -1.4375 95.4375 C-2.283125 95.293125 -3.12875 95.14875 -4 95 C-4.33 93.35 -4.66 91.7 -5 90 C-5.6290625 89.82984375 -6.258125 89.6596875 -6.90625 89.484375 C-19.08447014 86.03632472 -19.08447014 86.03632472 -23 83 C-24.36705716 79.60565921 -24.24395717 75.86806591 -24.4375 72.25 C-24.78305767 66.88270916 -25.59089417 62.16672137 -27 57 C-27.125 54 -27.125 54 -27 52 C-24.525 51.505 -24.525 51.505 -22 51 C-21.9071875 50.071875 -21.9071875 50.071875 -21.8125 49.125 C-21 47 -21 47 -18.4375 45.75 C-17.633125 45.5025 -16.82875 45.255 -16 45 C-16 43.68 -16 42.36 -16 41 C-16.804375 40.7525 -17.60875 40.505 -18.4375 40.25 C-21 39 -21 39 -21.8125 37 C-22 35 -22 35 -22 33 C-22.63808594 32.82984375 -23.27617187 32.6596875 -23.93359375 32.484375 C-24.75988281 32.24203125 -25.58617187 31.9996875 -26.4375 31.75 C-27.26121094 31.51796875 -28.08492187 31.2859375 -28.93359375 31.046875 C-29.61550781 30.70140625 -30.29742187 30.3559375 -31 30 C-31.33 28.68 -31.66 27.36 -32 26 C-35.3 26 -38.6 26 -42 26 C-42.95694156 22.17223377 -43.23999105 20.62458922 -42 17 C-40.1875 15.9375 -40.1875 15.9375 -38 15 C-35.33962479 12.64366767 -34.13593805 11.40781414 -33 8 C-31.00390625 7.26953125 -31.00390625 7.26953125 -28.5625 6.8125 C-27.35787109 6.57466797 -27.35787109 6.57466797 -26.12890625 6.33203125 C-24 6 -24 6 -22 6 C-21.67 4.68 -21.34 3.36 -21 2 C-19.948125 2.391875 -18.89625 2.78375 -17.8125 3.1875 C-14.09625659 4.38900507 -14.09625659 4.38900507 -11.3125 2.6875 C-10.549375 2.130625 -9.78625 1.57375 -9 1 C-5.96102732 -0.04464686 -3.20065533 -0.08890709 0 0 Z " fill="#F2F3F5" transform="translate(267,85)"/>
<path d="M0 0 C1.45755649 0.00056958 1.45755649 0.00056958 2.94455856 0.00115067 C4.61957501 -0.00183591 4.61957501 -0.00183591 6.32843018 -0.00488281 C8.1917161 -0.00051355 8.1917161 -0.00051355 10.09264416 0.00394398 C11.40023534 0.00308955 12.70782652 0.00223513 14.05504167 0.00135481 C17.70129687 -0.00089262 21.34752298 0.0031345 24.99377447 0.00813287 C28.91949229 0.01243365 32.84520834 0.01099122 36.77092785 0.0102306 C43.57808172 0.00970513 50.38522604 0.01285435 57.19237751 0.01846844 C67.03449082 0.0265803 76.87659949 0.02919834 86.71871578 0.03045643 C102.68519367 0.03264745 118.65166647 0.03930887 134.61814159 0.04875904 C150.13213873 0.05793188 165.64613448 0.06501334 181.16013378 0.06926686 C182.11570964 0.06952958 183.0712855 0.0697923 184.05581821 0.07006299 C188.84945037 0.07136798 193.64308253 0.0726317 198.43671471 0.07387489 C238.23246412 0.08424905 278.02820771 0.10194281 317.82395214 0.1241985 C317.82395214 3.4241985 317.82395214 6.7241985 317.82395214 10.1241985 C211.89395214 10.1241985 105.96395214 10.1241985 -3.17604786 10.1241985 C-3.17604786 0.18127376 -3.17604786 0.18127376 0 0 Z " fill="#9981B9" transform="translate(248.17604786157608,697.8758015036583)"/>
<path d="M0 0 C0.495 0.99 0.495 0.99 1 2 C1.99 2.66 2.98 3.32 4 4 C3.34 4.99 2.68 5.98 2 7 C2.61875 7.103125 3.2375 7.20625 3.875 7.3125 C6 8 6 8 8 11 C8 11.99 8 12.98 8 14 C7.34 14 6.68 14 6 14 C5.67 14.99 5.34 15.98 5 17 C4.34 17 3.68 17 3 17 C3 17.66 3 18.32 3 19 C3.86625 18.79375 4.7325 18.5875 5.625 18.375 C9.45559678 17.94937814 11.44726089 18.59370744 15 20 C16.093125 20.28875 17.18625 20.5775 18.3125 20.875 C21 22 21 22 21.875 23.875 C21.99491576 25.9135679 22 27.95790821 22 30 C21.030625 30.350625 20.06125 30.70125 19.0625 31.0625 C15.66027034 32.7479847 15.66027034 32.7479847 14.9375 36.5 C14.64434582 39.92838277 14.64434582 39.92838277 16.4375 41.8125 C16.953125 42.204375 17.46875 42.59625 18 43 C18 43.66 18 44.32 18 45 C16.35 45 14.7 45 13 45 C12.01 43.02 12.01 43.02 11 41 C1.79989229 42.27251092 -3.87639304 44.74059916 -10.66015625 51.13671875 C-13 53 -13 53 -17 53 C-18.04449911 49.86650268 -17.93423645 49.01031744 -17 46 C-15.68 45.67 -14.36 45.34 -13 45 C-13 44.34 -13 43.68 -13 43 C-9.7 42.34 -6.4 41.68 -3 41 C-3.680625 40.0925 -4.36125 39.185 -5.0625 38.25 C-7 35 -7 35 -6.875 32.75 C-6 31 -6 31 -4 29 C-10.53157991 28.77082176 -15.50743621 29.6622051 -21.671875 32.0234375 C-30.92299724 35.54886516 -30.92299724 35.54886516 -36 35 C-36 35.66 -36 36.32 -36 37 C-37.70940029 38.60228383 -39.53301528 40.01294742 -41.37109375 41.46484375 C-43.26558258 43.00756886 -43.26558258 43.00756886 -44 46 C-49.00985141 48.50492571 -56.14003353 48.585545 -61.375 46.9375 C-62.24125 46.628125 -63.1075 46.31875 -64 46 C-67.11681225 46.81664605 -67.11681225 46.81664605 -70 48 C-71.32 48 -72.64 48 -74 48 C-74 47.34 -74 46.68 -74 46 C-74.66 46 -75.32 46 -76 46 C-76 43.69 -76 41.38 -76 39 C-77.11375 38.9175 -78.2275 38.835 -79.375 38.75 C-83 38 -83 38 -84.5625 36.1875 C-85.11386938 33.4306531 -84.49337756 32.32303176 -83 30 C-81.7625 30.185625 -80.525 30.37125 -79.25 30.5625 C-76.16996501 30.94615348 -73.97138682 30.99046227 -71 30 C-69.00211562 29.65421232 -67.00240549 29.31856451 -65 29 C-64.95875 28.236875 -64.9175 27.47375 -64.875 26.6875 C-64 24 -64 24 -61.125 22.1875 C-58 21 -58 21 -55 21 C-54.896875 20.401875 -54.79375 19.80375 -54.6875 19.1875 C-53.87250285 16.59432726 -53.13174347 15.67158739 -51 14 C-48.40480018 13.60041494 -45.90057001 13.56168656 -43.27734375 13.50390625 C-40.84726386 13.2473432 -40.84726386 13.2473432 -39.80078125 11.125 C-39.53652344 10.42375 -39.27226563 9.7225 -39 9 C-36.2154612 4.92263962 -33.69640238 2.66330918 -29 1 C-27.6432038 1.61751622 -26.31290775 2.29395788 -25 3 C-23.09462228 3.58012897 -21.17675047 4.12037488 -19.25 4.625 C-18.26515625 4.88539063 -17.2803125 5.14578125 -16.265625 5.4140625 C-15.51796875 5.60742188 -14.7703125 5.80078125 -14 6 C-13.67 5.01 -13.34 4.02 -13 3 C-11.07421875 1.796875 -11.07421875 1.796875 -8.6875 0.75 C-7.90761719 0.39421875 -7.12773438 0.0384375 -6.32421875 -0.328125 C-3.72747888 -1.07877921 -2.48030331 -1.02935325 0 0 Z " fill="#F1F2F4" transform="translate(654,240)"/>
<path d="M0 0 C0.33 0 0.66 0 1 0 C1 1.98 1 3.96 1 6 C1.66 6.33 2.32 6.66 3 7 C2.34 8.32 1.68 9.64 1 11 C-0.65 10.67 -2.3 10.34 -4 10 C-3.67 10.7425 -3.34 11.485 -3 12.25 C-2 15 -2 15 -2 19 C-1.34 19 -0.68 19 0 19 C0.33 19.99 0.66 20.98 1 22 C1.66 22.33 2.32 22.66 3 23 C3.40729228 25.32156597 3.74438677 27.6568787 4 30 C3.34 30 2.68 30 2 30 C2 30.66 2 31.32 2 32 C-3.75 30.125 -3.75 30.125 -6 29 C-6 29.66 -6 30.32 -6 31 C-6.99 30.67 -7.98 30.34 -9 30 C-10.59722255 25.20833236 -11.42366526 21.91811636 -10 17 C-9.4458172 13.92120666 -9 11.13079733 -9 8 C-8.34 8 -7.68 8 -7 8 C-6.67 7.01 -6.34 6.02 -6 5 C-4.02 5 -2.04 5 0 5 C0 3.35 0 1.7 0 0 Z " fill="#DCDDE4" transform="translate(338,308)"/>
<path d="M0 0 C7.92 0 15.84 0 24 0 C24 3.3 24 6.6 24 10 C18.06 10 12.12 10 6 10 C6 7.03 6 4.06 6 1 C4.02 1 2.04 1 0 1 C0 0.67 0 0.34 0 0 Z " fill="#471486" transform="translate(542,698)"/>
<path d="M0 0 C0.66 0 1.32 0 2 0 C3.05404945 3.98196457 2.84098656 6.98195309 2 11 C1.34 11 0.68 11 0 11 C0.2475 12.27875 0.495 13.5575 0.75 14.875 C1.43453233 20.6159445 -0.52393692 24.90972439 -3 30 C-3.99 30 -4.98 30 -6 30 C-5.67 30.99 -5.34 31.98 -5 33 C-4.34 32.34 -3.68 31.68 -3 31 C-2.92572162 34.34252724 -2.93453047 36.8035914 -4 40 C-4.99 40 -5.98 40 -7 40 C-8.84209414 33.29424723 -9.19510551 30.26732236 -6 24 C-5.85326655 20.62093824 -5.93788295 17.30398667 -6.08984375 13.92578125 C-6 11 -6 11 -4 8 C-3.67 6.989375 -3.34 5.97875 -3 4.9375 C-2 2 -2 2 0 0 Z " fill="#D9DBE0" transform="translate(595,532)"/>
<path d="M0 0 C0.99 0.33 1.98 0.66 3 1 C2.67 1.66 2.34 2.32 2 3 C2.66 3 3.32 3 4 3 C3.67 4.98 3.34 6.96 3 9 C2.01 9 1.02 9 0 9 C0 10.98 0 12.96 0 15 C-0.99 15.495 -0.99 15.495 -2 16 C-2 17.65 -2 19.3 -2 21 C-1.030625 20.814375 -0.06125 20.62875 0.9375 20.4375 C2.4534375 20.2209375 2.4534375 20.2209375 4 20 C5 21 5 21 5.0625 23.5625 C5.041875 24.366875 5.02125 25.17125 5 26 C7.97 26.33 10.94 26.66 14 27 C14 27.99 14 28.98 14 30 C10.7 29.01 7.4 28.02 4 27 C3.67 25.35 3.34 23.7 3 22 C-1.455 23.485 -1.455 23.485 -6 25 C-5.67 25.99 -5.34 26.98 -5 28 C-3.02 28 -1.04 28 1 28 C1 28.99 1 29.98 1 31 C-0.98 31.33 -2.96 31.66 -5 32 C-5.309375 32.94875 -5.61875 33.8975 -5.9375 34.875 C-7 38 -7 38 -8 40 C-9.32 38.68 -10.64 37.36 -12 36 C-10.515 35.505 -10.515 35.505 -9 35 C-9 34.34 -9 33.68 -9 33 C-8.01 32.34 -7.02 31.68 -6 31 C-6.66 30.67 -7.32 30.34 -8 30 C-8 27.69 -8 25.38 -8 23 C-6.68 22.67 -5.36 22.34 -4 22 C-4 18.37 -4 14.74 -4 11 C-3.01 10.67 -2.02 10.34 -1 10 C-1 9.34 -1 8.68 -1 8 C-0.01 8 0.98 8 2 8 C2.33 6.68 2.66 5.36 3 4 C2.34 4 1.68 4 1 4 C0.67 2.68 0.34 1.36 0 0 Z " fill="#B1A8C6" transform="translate(256,360)"/>
<path d="M0 0 C0.99 0.495 0.99 0.495 2 1 C2 1.66 2 2.32 2 3 C2.639375 3.268125 3.27875 3.53625 3.9375 3.8125 C6 5 6 5 7 8 C9.31543043 8.72640955 11.65269935 9.38431458 14 10 C17.62128909 11.60172402 20.38460391 13.02795899 23 16 C23.721875 16.66 24.44375 17.32 25.1875 18 C27 20 27 20 27 23 C28.051875 23.268125 29.10375 23.53625 30.1875 23.8125 C33.60387394 24.87661647 36.15896298 25.84769923 39 28 C39 28.99 39 29.98 39 31 C46.27140145 29.50584751 46.27140145 29.50584751 52.5625 25.875 C56.31007684 22.99224859 60.38572598 23.17919511 65 23 C65 23.33 65 23.66 65 24 C64.32453125 24.18175781 63.6490625 24.36351563 62.953125 24.55078125 C62.06109375 24.80214844 61.1690625 25.05351563 60.25 25.3125 C59.36828125 25.55613281 58.4865625 25.79976562 57.578125 26.05078125 C54.95162723 26.87128555 54.95162723 26.87128555 52.921875 28.60546875 C51 30 51 30 47 30 C47 30.66 47 31.32 47 32 C43.37 32 39.74 32 36 32 C36 30.68 36 29.36 36 28 C35.30132812 27.81824219 34.60265625 27.63648437 33.8828125 27.44921875 C32.97273438 27.19785156 32.06265625 26.94648437 31.125 26.6875 C30.22007812 26.44386719 29.31515625 26.20023438 28.3828125 25.94921875 C26 25 26 25 24 22 C24 20.68 24 19.36 24 18 C23.360625 17.896875 22.72125 17.79375 22.0625 17.6875 C21.381875 17.460625 20.70125 17.23375 20 17 C19.67 16.01 19.34 15.02 19 14 C18.34 13.9175 17.68 13.835 17 13.75 C9.62677476 11.90669369 4.18883678 8.44192323 0 2 C0 1.34 0 0.68 0 0 Z " fill="#DDDFE3" transform="translate(276,87)"/>
<path d="M0 0 C1.3125 2.0625 1.3125 2.0625 2 4 C1.01 3.67 0.02 3.34 -1 3 C-1 2.34 -1 1.68 -1 1 C-10.20010771 2.27251092 -15.87639304 4.74059916 -22.66015625 11.13671875 C-25 13 -25 13 -29 13 C-30.04449911 9.86650268 -29.93423645 9.01031744 -29 6 C-27.68 5.67 -26.36 5.34 -25 5 C-25 4.34 -25 3.68 -25 3 C-24.32453125 2.95101563 -23.6490625 2.90203125 -22.953125 2.8515625 C-22.06109375 2.77679688 -21.1690625 2.70203125 -20.25 2.625 C-19.36828125 2.55539062 -18.4865625 2.48578125 -17.578125 2.4140625 C-14.98478034 1.99755563 -13.28987735 1.23894416 -11 0 C-7.06900583 -0.92001991 -3.84934437 -1.39004102 0 0 Z " fill="#E9EBEE" transform="translate(666,280)"/>
<path d="M0 0 C0.66 1.98 1.32 3.96 2 6 C4.64 6.33 7.28 6.66 10 7 C6.53001271 9.31332486 5.07490752 9.33957563 1 9 C0.01 8.34 -0.98 7.68 -2 7 C-2 6.01 -2 5.02 -2 4 C-1.34 4 -0.68 4 0 4 C0 3.34 0 2.68 0 2 C-4.29 2.99 -8.58 3.98 -13 5 C-13.33 6.32 -13.66 7.64 -14 9 C-15 12 -15 12 -16.6875 13.1875 C-19.54969093 14.19313465 -21.98827908 14.13689641 -25 14 C-25.33 12.68 -25.66 11.36 -26 10 C-26.96421875 9.95101563 -27.9284375 9.90203125 -28.921875 9.8515625 C-30.18515625 9.77679688 -31.4484375 9.70203125 -32.75 9.625 C-34.62945312 9.52058594 -34.62945312 9.52058594 -36.546875 9.4140625 C-39.60998121 9.04676696 -41.41974266 8.60288714 -44 7 C-40.94830791 5.47415396 -37.87887914 6.08475242 -34.5625 6.3125 C-33.5405957 6.36567383 -33.5405957 6.36567383 -32.49804688 6.41992188 C-28.87650436 6.65757452 -27.08369433 6.94420378 -24 9 C-24 10.32 -24 11.64 -24 13 C-22.68 13 -21.36 13 -20 13 C-20 12.34 -20 11.68 -20 11 C-19.01 11 -18.02 11 -17 11 C-17 10.01 -17 9.02 -17 8 C-16.34 7.67 -15.68 7.34 -15 7 C-14.88140625 6.35546875 -14.7628125 5.7109375 -14.640625 5.046875 C-14 3 -14 3 -12.109375 1.953125 C-4.19372294 -0.40584416 -4.19372294 -0.40584416 0 0 Z " fill="#A99DC1" transform="translate(315,384)"/>
<path d="M0 0 C2.08954032 4.17908064 2.16552619 4.80410573 1 9 C1.66 9 2.32 9 3 9 C3 10.98 3 12.96 3 15 C1.35 15 -0.3 15 -2 15 C-2.66 17.64 -3.32 20.28 -4 23 C-3.01 23.33 -2.02 23.66 -1 24 C-1 25.32 -1 26.64 -1 28 C-0.01 27.34 0.98 26.68 2 26 C2.99 26 3.98 26 5 26 C5 26.66 5 27.32 5 28 C3.02 28.99 3.02 28.99 1 30 C3.475 30.99 3.475 30.99 6 32 C6.33 31.34 6.66 30.68 7 30 C7.33 32.31 7.66 34.62 8 37 C6.35 36.67 4.7 36.34 3 36 C3 36.66 3 37.32 3 38 C1.68 37.67 0.36 37.34 -1 37 C-1.48066535 35.10454608 -1.95946743 33.20861961 -2.4375 31.3125 C-2.83775391 29.72888672 -2.83775391 29.72888672 -3.24609375 28.11328125 C-4.50623793 22.90947341 -5.1055041 18.38070933 -5 13 C-3.02 13 -1.04 13 1 13 C1.33 12.01 1.66 11.02 2 10 C1.34 10 0.68 10 0 10 C0 6.7 0 3.4 0 0 Z M1 33 C0.67 33.99 0.34 34.98 0 36 C0.99 36.495 0.99 36.495 2 37 C2.33 35.68 2.66 34.36 3 33 C2.34 33 1.68 33 1 33 Z " fill="#D7D9DE" transform="translate(306,492)"/>
<path d="M0 0 C0.66 0.33 1.32 0.66 2 1 C3.37548156 1.08308638 4.75485796 1.10736016 6.1328125 1.09765625 C6.93847656 1.09443359 7.74414062 1.09121094 8.57421875 1.08789062 C9.41597656 1.07951172 10.25773437 1.07113281 11.125 1.0625 C12.39923828 1.05573242 12.39923828 1.05573242 13.69921875 1.04882812 C15.79950909 1.03702874 17.8997633 1.01909306 20 1 C19.01 2.485 19.01 2.485 18 4 C15.1015625 4.22265625 15.1015625 4.22265625 11.625 4.0625 C6.01903574 3.80112515 6.01903574 3.80112515 1 6 C3.11785113 7.11785113 3.11785113 7.11785113 6 8 C6 8.66 6 9.32 6 10 C6.639375 10.12375 7.27875 10.2475 7.9375 10.375 C8.618125 10.58125 9.29875 10.7875 10 11 C10.33 11.66 10.66 12.32 11 13 C10.0625 15.125 10.0625 15.125 9 17 C8.01 17 7.02 17 6 17 C6 17.99 6 18.98 6 20 C5.34 19.67 4.68 19.34 4 19 C4.9977758 16.00667261 5.7522025 15.05233685 8 13 C7.01 12.34 6.02 11.68 5 11 C5 10.34 5 9.68 5 9 C3.02 9 1.04 9 -1 9 C-1.09765625 2.84765625 -1.09765625 2.84765625 -1 1 C-0.67 0.67 -0.34 0.34 0 0 Z " fill="#ABA0C2" transform="translate(390,344)"/>
<path d="M0 0 C2.53541298 0.09086451 5.03554784 0.2370945 7.5625 0.4375 C8.62887695 0.51581055 8.62887695 0.51581055 9.71679688 0.59570312 C11.47821999 0.72574107 13.23916173 0.86226897 15 1 C15 1.33 15 1.66 15 2 C10.05 2.33 5.1 2.66 0 3 C0 4.65 0 6.3 0 8 C-0.66 8 -1.32 8 -2 8 C-2.33 9.32 -2.66 10.64 -3 12 C-3.66 12 -4.32 12 -5 12 C-4.67 13.65 -4.34 15.3 -4 17 C-4.66 17 -5.32 17 -6 17 C-6.66 16.34 -7.32 15.68 -8 15 C-8.66 15 -9.32 15 -10 15 C-10.66 13.35 -11.32 11.7 -12 10 C-8.16674383 7.29417212 -5.67461851 6.67386382 -1 7 C-1.020625 6.030625 -1.04125 5.06125 -1.0625 4.0625 C-1 1 -1 1 0 0 Z " fill="#CAC9D6" transform="translate(157,337)"/>
<path d="M0 0 C0.99 0.495 0.99 0.495 2 1 C2.45546822 3.58098657 2.79751133 6.08600249 3.0625 8.6875 C3.21891899 10.10819813 3.37645464 11.52877379 3.53515625 12.94921875 C3.61137207 13.6354834 3.68758789 14.32174805 3.76611328 15.02880859 C4.30301869 20.17725466 4.30301869 20.17725466 6 25 C8.32103066 26.08643988 10.6193226 27.06048267 13 28 C13.886875 28.35707031 14.77375 28.71414062 15.6875 29.08203125 C18.12258086 30.06090609 20.56021489 31.0329222 23 32 C23 33.65 23 35.3 23 37 C25.31 37 27.62 37 30 37 C27.64561267 38.42944945 26.51967567 39.08661261 23.75 38.625 C23.1725 38.41875 22.595 38.2125 22 38 C21.505 35.525 21.505 35.525 21 33 C20.3709375 32.82984375 19.741875 32.6596875 19.09375 32.484375 C6.91552986 29.03632472 6.91552986 29.03632472 3 26 C1.64232859 22.60970053 1.72081105 18.86183781 1.5 15.25 C1.1632926 10.12990967 0.71126263 5.08044732 0 0 Z " fill="#DDE0E3" transform="translate(241,142)"/>
<path d="M0 0 C0.99 0 1.98 0 3 0 C3 0.66 3 1.32 3 2 C4.32 2 5.64 2 7 2 C8.57312496 5.67062491 9.14440048 7.44302674 8.125 11.375 C7.75375 12.24125 7.3825 13.1075 7 14 C5.10546875 13.73828125 5.10546875 13.73828125 3 13 C1.98828125 11.29296875 1.98828125 11.29296875 1.3125 9.1875 C1.08175781 8.50042969 0.85101563 7.81335938 0.61328125 7.10546875 C0.41089844 6.41066406 0.20851562 5.71585937 0 5 C-0.21269531 4.27425781 -0.42539063 3.54851562 -0.64453125 2.80078125 C-0.76183594 2.20652344 -0.87914062 1.61226563 -1 1 C-0.67 0.67 -0.34 0.34 0 0 Z " fill="#69459A" transform="translate(248,494)"/>
<path d="M0 0 C2 1 2 1 2.8515625 3.1796875 C3.10679687 4.06914062 3.36203125 4.95859375 3.625 5.875 C3.88539063 6.75929687 4.14578125 7.64359375 4.4140625 8.5546875 C5 11 5 11 5 14 C1.14354879 14.22036864 -1.49223216 13.60355101 -5 12 C-4.67 9.69 -4.34 7.38 -4 5 C-2.35 4.67 -0.7 4.34 1 4 C0.67 2.68 0.34 1.36 0 0 Z " fill="#D6D9DE" transform="translate(308,246)"/>
<path d="M0 0 C3.465 1.485 3.465 1.485 7 3 C3.25 4.125 3.25 4.125 1 3 C0.9175 4.27875 0.835 5.5575 0.75 6.875 C0.23341837 10.76658163 0.23341837 10.76658163 -1.5625 12.5625 C-5.21324376 13.2177617 -8.34519969 12.60913339 -12 12 C-12 13.65 -12 15.3 -12 17 C-12.33 17 -12.66 17 -13 17 C-13.36923077 9.61538462 -13.36923077 9.61538462 -11.5 6.5 C-11.005 6.005 -10.51 5.51 -10 5 C-9.67 5.99 -9.34 6.98 -9 8 C-7.35 8 -5.7 8 -4 8 C-3.67 8.66 -3.34 9.32 -3 10 C-2.34 10 -1.68 10 -1 10 C-1.01160156 9.36191406 -1.02320313 8.72382813 -1.03515625 8.06640625 C-1.04417969 7.24011719 -1.05320313 6.41382813 -1.0625 5.5625 C-1.07410156 4.73878906 -1.08570313 3.91507812 -1.09765625 3.06640625 C-1 1 -1 1 0 0 Z " fill="#BFBACF" transform="translate(241,403)"/>
<path d="M0 0 C0.71671875 0.38542969 1.4334375 0.77085937 2.171875 1.16796875 C4.07725272 1.74809772 5.99512453 2.28834363 7.921875 2.79296875 C9.39914062 3.18355469 9.39914062 3.18355469 10.90625 3.58203125 C12.02773438 3.87207031 12.02773438 3.87207031 13.171875 4.16796875 C13.501875 3.17796875 13.831875 2.18796875 14.171875 1.16796875 C17.234375 -0.01953125 17.234375 -0.01953125 20.171875 -0.83203125 C18.796875 1.16796875 18.796875 1.16796875 17.171875 3.16796875 C16.511875 3.16796875 15.851875 3.16796875 15.171875 3.16796875 C14.841875 4.15796875 14.511875 5.14796875 14.171875 6.16796875 C11.83761712 5.84117265 9.50444994 5.50656834 7.171875 5.16796875 C6.058125 5.02359375 4.944375 4.87921875 3.796875 4.73046875 C2.930625 4.54484375 2.064375 4.35921875 1.171875 4.16796875 C0.841875 3.50796875 0.511875 2.84796875 0.171875 2.16796875 C-3.90776781 3.46951881 -3.90776781 3.46951881 -7.828125 5.16796875 C-8.158125 6.15796875 -8.488125 7.14796875 -8.828125 8.16796875 C-9.818125 8.82796875 -10.808125 9.48796875 -11.828125 10.16796875 C-12.158125 11.15796875 -12.488125 12.14796875 -12.828125 13.16796875 C-13.488125 12.83796875 -14.148125 12.50796875 -14.828125 12.16796875 C-6.24963663 -2.8443859 -6.24963663 -2.8443859 0 0 Z " fill="#DFE1E5" transform="translate(626.828125,241.83203125)"/>
<path d="M0 0 C0.33 0 0.66 0 1 0 C1 1.65 1 3.3 1 5 C1.99 4.67 2.98 4.34 4 4 C3.44271087 7.34373475 2.64826111 10.03312999 1 13 C0.34 13 -0.32 13 -1 13 C-0.67 13.99 -0.34 14.98 0 16 C0.66 15.34 1.32 14.68 2 14 C2.07427838 17.34252724 2.06546953 19.8035914 1 23 C0.01 23 -0.98 23 -2 23 C-4.44809483 14.08823031 -4.44809483 14.08823031 -2.6875 9.8125 C-2.130625 8.884375 -1.57375 7.95625 -1 7 C-0.2863276 3.26228166 -0.2863276 3.26228166 0 0 Z " fill="#E0E2E5" transform="translate(590,549)"/>
<path d="M0 0 C0.33 0.66 0.66 1.32 1 2 C0.21625 2.20625 -0.5675 2.4125 -1.375 2.625 C-4.28268197 3.78714344 -4.28268197 3.78714344 -5.1875 6.9375 C-5.455625 7.948125 -5.72375 8.95875 -6 10 C-6.99 11.485 -6.99 11.485 -8 13 C-1.0030827 14.74922933 5.80729161 15.53752467 13 16 C13 16.33 13 16.66 13 17 C10.45767658 17.08152344 7.91800798 17.14073716 5.375 17.1875 C4.66214844 17.21263672 3.94929687 17.23777344 3.21484375 17.26367188 C-1.59868692 17.32991312 -4.82231506 16.65443674 -9 14 C-10.26026798 11.47946405 -9.91874445 10.1457902 -9.5625 7.375 C-9.46066406 6.55773437 -9.35882812 5.74046875 -9.25390625 4.8984375 C-9.17011719 4.27195312 -9.08632813 3.64546875 -9 3 C-8.01 3 -7.02 3 -6 3 C-5.34 2.34 -4.68 1.68 -4 1 C-1.875 0.375 -1.875 0.375 0 0 Z " fill="#DADCE1" transform="translate(547,305)"/>
<path d="M0 0 C0.66 0 1.32 0 2 0 C2.93423645 3.01031744 3.04449911 3.86650268 2 7 C2.99 7.33 3.98 7.66 5 8 C5 8.66 5 9.32 5 10 C6.32 10.66 7.64 11.32 9 12 C8.34 13.65 7.68 15.3 7 17 C5.02 17 3.04 17 1 17 C0.71125 17.9075 0.4225 18.815 0.125 19.75 C-0.76531776 22.32202908 -1.71494413 24.61346766 -3 27 C-4.47177418 23.17338712 -3.57016757 20.68989378 -2 17 C-0.6875 15.0625 -0.6875 15.0625 1 14 C3.6875 14.3125 3.6875 14.3125 6 15 C6 14.01 6 13.02 6 12 C5.34 11.67 4.68 11.34 4 11 C4 10.34 4 9.68 4 9 C3.01 8.67 2.02 8.34 1 8 C0.67 5.36 0.34 2.72 0 0 Z " fill="#AB9FC2" transform="translate(368,414)"/>
<path d="M0 0 C0.66 0.33 1.32 0.66 2 1 C2.625 4.0625 2.625 4.0625 3 7 C2.34 7 1.68 7 1 7 C1.99 9.97 2.98 12.94 4 16 C3.01 16.99 2.02 17.98 1 19 C0.67 19.99 0.34 20.98 0 22 C-0.66 22 -1.32 22 -2 22 C-2 19.33333333 -2 16.66666667 -2 14 C-1.34 14 -0.68 14 0 14 C-0.08378906 13.32453125 -0.16757812 12.6490625 -0.25390625 11.953125 C-0.35574219 11.06109375 -0.45757813 10.1690625 -0.5625 9.25 C-0.66691406 8.36828125 -0.77132812 7.4865625 -0.87890625 6.578125 C-0.99456676 4.11567549 -0.73638695 2.33461936 0 0 Z " fill="#D6D8DD" transform="translate(521,366)"/>
<path d="M0 0 C2.625 0.375 2.625 0.375 5 1 C5.125 7.75 5.125 7.75 4 10 C-0.875 9.125 -0.875 9.125 -2 8 C-2.1875 5.0625 -2.1875 5.0625 -2 2 C-1.34 1.34 -0.68 0.68 0 0 Z " fill="#656666" transform="translate(243,668)"/>
<path d="M0 0 C0 0.66 0 1.32 0 2 C-1.216875 2.103125 -2.43375 2.20625 -3.6875 2.3125 C-7.45820863 2.76471902 -9.78852636 3.94822518 -13 6 C-14.32 6 -15.64 6 -17 6 C-17 6.66 -17 7.32 -17 8 C-19.875 8.625 -19.875 8.625 -23 9 C-23.66 8.34 -24.32 7.68 -25 7 C-24.01 6.67 -23.02 6.34 -22 6 C-21.26676204 3.98491642 -21.26676204 3.98491642 -21 2 C-19.4221875 2.5878125 -19.4221875 2.5878125 -17.8125 3.1875 C-14.09625659 4.38900507 -14.09625659 4.38900507 -11.3125 2.6875 C-10.1678125 1.8521875 -10.1678125 1.8521875 -9 1 C-5.96102732 -0.04464686 -3.20065533 -0.08890709 0 0 Z " fill="#DFE1E5" transform="translate(267,85)"/>
<path d="M0 0 C0.66 0.99 1.32 1.98 2 3 C5.08365871 3.2502157 5.08365871 3.2502157 8 3 C8 3.99 8 4.98 8 6 C6.02 6.33 4.04 6.66 2 7 C1.690625 7.94875 1.38125 8.8975 1.0625 9.875 C0 13 0 13 -1 15 C-2.32 13.68 -3.64 12.36 -5 11 C-4.01 10.67 -3.02 10.34 -2 10 C-2 9.34 -2 8.68 -2 8 C-1.01 7.34 -0.02 6.68 1 6 C0.34 5.67 -0.32 5.34 -1 5 C-0.67 3.35 -0.34 1.7 0 0 Z " fill="#ADA3C4" transform="translate(249,385)"/>
<path d="M0 0 C8.19917012 3.31120332 8.19917012 3.31120332 11 6 C11 6.99 11 7.98 11 9 C11.66 9 12.32 9 13 9 C14 10 15 11 16 12 C17.98188345 13.36011609 19.97951869 14.69791204 22 16 C21.01 16.33 20.02 16.66 19 17 C16.73828125 15.671875 16.73828125 15.671875 14.3125 13.75 C13.50425781 13.12609375 12.69601562 12.5021875 11.86328125 11.859375 C10.94095703 10.93898438 10.94095703 10.93898438 10 10 C10 9.01 10 8.02 10 7 C7.66785852 5.79371992 5.50357861 4.8345262 3 4 C3.66 5.98 4.32 7.96 5 10 C1.55783328 7.3401439 1.00495326 4.09711714 0 0 Z " fill="#D8DBDF" transform="translate(266,545)"/>
<path d="M0 0 C0.66 0 1.32 0 2 0 C2 0.99 2 1.98 2 3 C5.63 3.33 9.26 3.66 13 4 C14 8 14 8 14.4375 11.625 C14.67426443 15.06175656 14.67426443 15.06175656 17 17 C15.35 16.67 13.7 16.34 12 16 C11.855625 14.88625 11.71125 13.7725 11.5625 12.625 C11.21627965 9.17857953 11.21627965 9.17857953 10 7 C10.33 6.34 10.66 5.68 11 5 C7.37 5 3.74 5 0 5 C-0.33 3.68 -0.66 2.36 -1 1 C-0.67 0.67 -0.34 0.34 0 0 Z " fill="#D7D9DE" transform="translate(249,225)"/>
<path d="M0 0 C0.8971875 0.5259375 0.8971875 0.5259375 1.8125 1.0625 C-0.26303648 1.6159764 -2.03115964 2.0625 -4.1875 2.0625 C-4.4040625 2.9596875 -4.4040625 2.9596875 -4.625 3.875 C-5.0747439 5.62400404 -5.61642341 7.34927023 -6.1875 9.0625 C-7.1775 9.5575 -7.1775 9.5575 -8.1875 10.0625 C-8.84305119 12.58983235 -8.84305119 12.58983235 -9.1875 15.0625 C-9.8475 15.0625 -10.5075 15.0625 -11.1875 15.0625 C-11.1875 16.7125 -11.1875 18.3625 -11.1875 20.0625 C-12.3046875 18.359375 -12.3046875 18.359375 -13.1875 16.0625 C-12.5078125 13.703125 -12.5078125 13.703125 -11.3125 11.3125 C-10.92320312 10.51328125 -10.53390625 9.7140625 -10.1328125 8.890625 C-9.82085937 8.28734375 -9.50890625 7.6840625 -9.1875 7.0625 C-8.5275 7.0625 -7.8675 7.0625 -7.1875 7.0625 C-6.7853125 5.3609375 -6.7853125 5.3609375 -6.375 3.625 C-5.983125 2.449375 -5.59125 1.27375 -5.1875 0.0625 C-2.1875 -0.9375 -2.1875 -0.9375 0 0 Z " fill="#A99CC1" transform="translate(385.1875,370.9375)"/>
<path d="M0 0 C0.66 1.98 1.32 3.96 2 6 C4.64 6.33 7.28 6.66 10 7 C6.53001271 9.31332486 5.07490752 9.33957563 1 9 C0.01 8.34 -0.98 7.68 -2 7 C-2 6.01 -2 5.02 -2 4 C-1.34 4 -0.68 4 0 4 C0 3.34 0 2.68 0 2 C-2.64 2.33 -5.28 2.66 -8 3 C-8.33 2.34 -8.66 1.68 -9 1 C-5.92677456 0.08941469 -3.19902639 -0.08886184 0 0 Z " fill="#A293BD" transform="translate(315,384)"/>
<path d="M0 0 C0.33 0 0.66 0 1 0 C1 1.98 1 3.96 1 6 C1.66 6.33 2.32 6.66 3 7 C2.34 8.32 1.68 9.64 1 11 C-0.32 10.67 -1.64 10.34 -3 10 C-3 9.01 -3 8.02 -3 7 C-4.98 8.32 -6.96 9.64 -9 11 C-9 10.01 -9 9.02 -9 8 C-8.34 8 -7.68 8 -7 8 C-6.67 7.01 -6.34 6.02 -6 5 C-4.02 5 -2.04 5 0 5 C0 3.35 0 1.7 0 0 Z " fill="#C1BCD1" transform="translate(338,308)"/>
<path d="M0 0 C1.32 0.66 2.64 1.32 4 2 C3.67 3.98 3.34 5.96 3 8 C7.455 7.505 7.455 7.505 12 7 C11.01 7.495 11.01 7.495 10 8 C9.67 8.99 9.34 9.98 9 11 C9 10.34 9 9.68 9 9 C7.02463255 9.34786708 7.02463255 9.34786708 5 10 C4.67 10.66 4.34 11.32 4 12 C3.01 11.67 2.02 11.34 1 11 C1.33 8.03 1.66 5.06 2 2 C0.68 2.33 -0.64 2.66 -2 3 C-2 3.66 -2 4.32 -2 5 C-2.99 5.33 -3.98 5.66 -5 6 C-3.86695008 2.60085025 -2.87481525 1.94745549 0 0 Z " fill="#D6D9DE" transform="translate(302,263)"/>
<path d="M0 0 C1.16309857 3.48929571 0.76950922 4.24098234 -0.5 7.5625 C-1.4157906 9.86743563 -1.4157906 9.86743563 -2 12 C-1.67 12.66 -1.34 13.32 -1 14 C-2.65 14.33 -4.3 14.66 -6 15 C-6 14.34 -6 13.68 -6 13 C-6.66 13 -7.32 13 -8 13 C-8 12.01 -8 11.02 -8 10 C-6.02 10 -4.04 10 -2 10 C-2.33 7.36 -2.66 4.72 -3 2 C-2.01 2 -1.02 2 0 2 C0 1.34 0 0.68 0 0 Z " fill="#C9C7D6" transform="translate(285,333)"/>
<path d="M0 0 C0.66 0 1.32 0 2 0 C1.979375 0.886875 1.95875 1.77375 1.9375 2.6875 C1.99286219 5.62169631 2.3305734 8.15493696 3 11 C2.01 10.01 1.02 9.02 0 8 C-0.99 8.99 -1.98 9.98 -3 11 C-3.66 10.67 -4.32 10.34 -5 10 C-4.54857119 8.70590408 -4.08858979 7.41478941 -3.625 6.125 C-3.36976563 5.40570313 -3.11453125 4.68640625 -2.8515625 3.9453125 C-2 2 -2 2 0 0 Z " fill="#CCCBD8" transform="translate(333,315)"/>
<path d="M0 0 C2.125 0.375 2.125 0.375 4 1 C4 2.98 4 4.96 4 7 C2.35 7.66 0.7 8.32 -1 9 C-1.625 5.625 -1.625 5.625 -2 2 C-1.34 1.34 -0.68 0.68 0 0 Z " fill="#EAECEF" transform="translate(592,545)"/>
<path d="M0 0 C0.99 0 1.98 0 3 0 C3 0.66 3 1.32 3 2 C7.455 1.505 7.455 1.505 12 1 C12 1.66 12 2.32 12 3 C12.99 3.33 13.98 3.66 15 4 C13.35 4.33 11.7 4.66 10 5 C10 4.67 10 4.34 10 4 C5.45194365 3.82164485 2.1205746 4.00214565 -2 6 C-2 4.68 -2 3.36 -2 2 C-1.34 2 -0.68 2 0 2 C0 1.34 0 0.68 0 0 Z " fill="#D7DADE" transform="translate(316,286)"/>
<path d="M0 0 C0.99 0.33 1.98 0.66 3 1 C2.505 1.4125 2.01 1.825 1.5 2.25 C-0.43386092 4.12202338 -0.43386092 4.12202338 0 8 C-3.38798468 9.12932823 -3.77890339 8.91779521 -6.875 7.5625 C-10.06560846 6.26741908 -12.51098282 5.67290464 -16 6 C-15.34 5.34 -14.68 4.68 -14 4 C-11.7578125 4.19921875 -11.7578125 4.19921875 -9.125 4.6875 C-6.4758043 5.09845483 -6.4758043 5.09845483 -4 5 C-1.30211406 2.75877645 -1.30211406 2.75877645 0 0 Z " fill="#D9DCE0" transform="translate(342,199)"/>
<path d="M0 0 C0.66 0.33 1.32 0.66 2 1 C2 1.66 2 2.32 2 3 C2.66 3 3.32 3 4 3 C3 6 3 6 1 7 C1.66 7.66 2.32 8.32 3 9 C3.66 8.34 4.32 7.68 5 7 C5 8.65 5 10.3 5 12 C4.01 12.33 3.02 12.66 2 13 C-0.97663853 8.90712202 -1.38606152 6.01879978 -1 1 C-0.67 0.67 -0.34 0.34 0 0 Z " fill="#DDDFE3" transform="translate(608,639)"/>
<path d="M0 0 C0.66 0.33 1.32 0.66 2 1 C2 2.98 2 4.96 2 7 C3.258125 6.896875 4.51625 6.79375 5.8125 6.6875 C8.02734375 6.67578125 8.02734375 6.67578125 10 7 C11.875 9.375 11.875 9.375 13 12 C13.66 12.66 14.32 13.32 15 14 C13.68 13.67 12.36 13.34 11 13 C10.67 11.68 10.34 10.36 10 9 C6.7 9 3.4 9 0 9 C-0.95904856 5.16380575 -0.91892116 3.67568464 0 0 Z " fill="#DADCE0" transform="translate(225,102)"/>
<path d="M0 0 C1.875 0.75 1.875 0.75 2.875 2.75 C3.865 3.41 4.855 4.07 5.875 4.75 C4.885 6.235 4.885 6.235 3.875 7.75 C5.195 8.08 6.515 8.41 7.875 8.75 C7.545 9.41 7.215 10.07 6.875 10.75 C3.875 10.75 3.875 10.75 0.875 9.75 C1.08125 8.96625 1.2875 8.1825 1.5 7.375 C1.685625 6.075625 1.685625 6.075625 1.875 4.75 C-0.48453094 2.39046906 -1.90395617 2.25858587 -5.125 1.75 C-2.125 -0.25 -2.125 -0.25 0 0 Z " fill="#DCDFE2" transform="translate(652.125,239.25)"/>
<path d="M0 0 C1.051875 0.185625 2.10375 0.37125 3.1875 0.5625 C6.57119882 0.95079331 8.76425888 0.88247485 12 0 C11 2 11 2 8 4 C8 4.99 8 5.98 8 7 C6.68 7 5.36 7 4 7 C3.67 7.99 3.34 8.98 3 10 C3 8.35 3 6.7 3 5 C3.66 4.67 4.32 4.34 5 4 C4.175 3.525625 3.35 3.05125 2.5 2.5625 C1.675 2.046875 0.85 1.53125 0 1 C0 0.67 0 0.34 0 0 Z " fill="#DADDE1" transform="translate(579,321)"/>
<path d="M0 0 C2.97064418 0.99021473 4.68806023 1.92722641 7 4 C7 4.99 7 5.98 7 7 C8.32 7.33 9.64 7.66 11 8 C11 9.65 11 11.3 11 13 C10.01 13 9.02 13 8 13 C8.33 11.35 8.66 9.7 9 8 C7.35 8 5.7 8 4 8 C3.896875 7.401875 3.79375 6.80375 3.6875 6.1875 C2.90868872 3.7094641 1.8892008 2.72492247 0 1 C0 0.67 0 0.34 0 0 Z " fill="#D8DADF" transform="translate(291,567)"/>
<path d="M0 0 C0.66 0.33 1.32 0.66 2 1 C2 1.66 2 2.32 2 3 C3.65 3 5.3 3 7 3 C6.34 3.66 5.68 4.32 5 5 C4.34 4.67 3.68 4.34 3 4 C2.67 4.99 2.34 5.98 2 7 C1.01 7 0.02 7 -1 7 C-1 8.65 -1 10.3 -1 12 C-1.33 12 -1.66 12 -2 12 C-2.28571429 3.42857143 -2.28571429 3.42857143 0 0 Z " fill="#ACA1C3" transform="translate(230,408)"/>
<path d="M0 0 C0.99 0 1.98 0 3 0 C3 1.32 3 2.64 3 4 C4.65 4.33 6.3 4.66 8 5 C8 5.66 8 6.32 8 7 C7.01 7 6.02 7 5 7 C4.34 9.97 3.68 12.94 3 16 C2.01 15.34 1.02 14.68 0 14 C0.66 14 1.32 14 2 14 C2.1799928 8.78020872 1.97094808 4.92737019 0 0 Z " fill="#D6D8DD" transform="translate(580,334)"/>
<path d="M0 0 C0.99 0 1.98 0 3 0 C3 2.31 3 4.62 3 7 C1.02 7.99 1.02 7.99 -1 9 C-2.25541557 5.23375329 -1.37061958 3.62811066 0 0 Z " fill="#E8EAED" transform="translate(593,534)"/>
<path d="M0 0 C0.66 0.33 1.32 0.66 2 1 C4.09821215 0.60061233 4.09821215 0.60061233 6 0 C6 0.99 6 1.98 6 3 C5.01 3 4.02 3 3 3 C2.67 4.32 2.34 5.64 2 7 C0.68 6.67 -0.64 6.34 -2 6 C-1.125 1.125 -1.125 1.125 0 0 Z " fill="#D5D8DD" transform="translate(508,382)"/>
<path d="M0 0 C0.66 0 1.32 0 2 0 C2 0.66 2 1.32 2 2 C2.66 2 3.32 2 4 2 C4 2.66 4 3.32 4 4 C5.32 4.66 6.64 5.32 8 6 C7.175 5.7525 6.35 5.505 5.5 5.25 C0.78555611 4.91325401 -2.02114976 6.64702511 -6 9 C-6.33 8.34 -6.66 7.68 -7 7 C-2.25 4 -2.25 4 0 4 C0 2.68 0 1.36 0 0 Z " fill="#C8C5D5" transform="translate(432,369)"/>
<path d="M0 0 C0.66 0 1.32 0 2 0 C4 3 4 3 4 7 C1.69 6.67 -0.62 6.34 -3 6 C-1.125 1.125 -1.125 1.125 0 0 Z " fill="#E3E5EA" transform="translate(307,251)"/>
<path d="M0 0 C4.75 1.875 4.75 1.875 7 3 C6.6875 4.875 6.6875 4.875 6 7 C5.01 7.66 4.02 8.32 3 9 C3.66 7.68 4.32 6.36 5 5 C4.01 4.34 3.02 3.68 2 3 C0.35 4.65 -1.3 6.3 -3 8 C-3.66 7.67 -4.32 7.34 -5 7 C-4.54625 6.5875 -4.0925 6.175 -3.625 5.75 C-1.94049626 3.93591905 -1.00734029 2.24714373 0 0 Z " fill="#D8DADF" transform="translate(316,220)"/>
<path d="M0 0 C3.41021743 0.78697325 6.68885166 1.87119943 10 3 C10 2.34 10 1.68 10 1 C10.66 1.33 11.32 1.66 12 2 C11.67 2.66 11.34 3.32 11 4 C6.05 4 1.1 4 -4 4 C-4 3.67 -4 3.34 -4 3 C-2.35 3 -0.7 3 1 3 C0.67 2.01 0.34 1.02 0 0 Z " fill="#C3BFD2" transform="translate(347,319)"/>
<path d="M0 0 C2.53541298 0.09086451 5.03554784 0.2370945 7.5625 0.4375 C8.62887695 0.51581055 8.62887695 0.51581055 9.71679688 0.59570312 C11.47821999 0.72574107 13.23916173 0.86226897 15 1 C15 1.33 15 1.66 15 2 C10.05 2.33 5.1 2.66 0 3 C0 4.65 0 6.3 0 8 C-0.99 8.33 -1.98 8.66 -3 9 C-3 8.34 -3 7.68 -3 7 C-2.34 7 -1.68 7 -1 7 C-1.020625 6.030625 -1.04125 5.06125 -1.0625 4.0625 C-1 1 -1 1 0 0 Z " fill="#BBB5CD" transform="translate(157,337)"/>
<path d="M0 0 C0.99 0.99 1.98 1.98 3 3 C3.53625 2.67 4.0725 2.34 4.625 2 C7.5391061 0.77300796 9.86867708 0.85766714 13 1 C8.96206812 3.69195459 4.70185482 4.91495658 0 6 C-0.38218767 4.34385343 -0.71395102 2.67542976 -1 1 C-0.67 0.67 -0.34 0.34 0 0 Z " fill="#D8DADF" transform="translate(272,231)"/>
<path d="M0 0 C0.66 0 1.32 0 2 0 C2.6875 2.3125 2.6875 2.3125 3 5 C1.5625 6.8125 1.5625 6.8125 0 8 C-2 5 -2 5 -1.6875 2.875 C-1 1 -1 1 0 0 Z " fill="#E2E4E7" transform="translate(586,579)"/>
<path d="M0 0 C0.33 0.66 0.66 1.32 1 2 C1.61875 2.309375 2.2375 2.61875 2.875 2.9375 C5.05810535 4.02905268 6.37010468 5.20711515 8 7 C5.33333333 6.33333333 2.66666667 5.66666667 0 5 C-0.70125 4.87625 -1.4025 4.7525 -2.125 4.625 C-4 4 -4 4 -6 1 C-4.02 1.99 -4.02 1.99 -2 3 C-1.34 2.01 -0.68 1.02 0 0 Z " fill="#DADCE1" transform="translate(361,249)"/>
<path d="M0 0 C1.32 0.33 2.64 0.66 4 1 C4 2.65 4 4.3 4 6 C2.68 6.33 1.36 6.66 0 7 C0 4.69 0 2.38 0 0 Z " fill="#EBECED" transform="translate(243,669)"/>
<path d="M0 0 C1.65 0 3.3 0 5 0 C4.34 3.3 3.68 6.6 3 10 C2.67 10 2.34 10 2 10 C0.68373308 6.38026598 0 3.90432869 0 0 Z " fill="#D4D7DB" transform="translate(353,559)"/>
<path d="M0 0 C0.33 0 0.66 0 1 0 C1 1.65 1 3.3 1 5 C1.99 4.67 2.98 4.34 4 4 C3.44271087 7.34373475 2.64826111 10.03312999 1 13 C-0.97387813 8.23947038 -1.0070238 5.03511899 0 0 Z " fill="#D8DBDF" transform="translate(590,549)"/>
<path d="M0 0 C2.0625 0.4375 2.0625 0.4375 4 1 C4 1.66 4 2.32 4 3 C4.66 3.33 5.32 3.66 6 4 C3.03 3.67 0.06 3.34 -3 3 C-3 3.66 -3 4.32 -3 5 C-5.475 4.01 -5.475 4.01 -8 3 C-8 2.67 -8 2.34 -8 2 C-6.865625 1.855625 -5.73125 1.71125 -4.5625 1.5625 C-1.19222799 1.38828522 -1.19222799 1.38828522 0 0 Z " fill="#DADCE1" transform="translate(434,276)"/>
<path d="M0 0 C1.32 0.99 2.64 1.98 4 3 C4.99 2.34 5.98 1.68 7 1 C7.103125 1.78375 7.20625 2.5675 7.3125 3.375 C7.77595022 6.33045181 7.77595022 6.33045181 11 8 C6.97454466 7.71915428 5.25517374 7.21634296 2.125 4.5625 C0 2 0 2 0 0 Z " fill="#DADDE1" transform="translate(303,620)"/>
<path d="M0 0 C1.34187818 0.6492959 2.67479497 1.31731862 4 2 C4.99 2 5.98 2 7 2 C7 2.66 7 3.32 7 4 C5.68 4 4.36 4 3 4 C3 4.66 3 5.32 3 6 C2.01 6 1.02 6 0 6 C0 5.01 0 4.02 0 3 C-0.66 2.34 -1.32 1.68 -2 1 C-1.34 0.67 -0.68 0.34 0 0 Z " fill="#DBDDE1" transform="translate(329,174)"/>
<path d="M0 0 C0.66 0.66 1.32 1.32 2 2 C1 4 0 6 -1 8 C-2.32 6.68 -3.64 5.36 -5 4 C-4.01 3.67 -3.02 3.34 -2 3 C-2 2.34 -2 1.68 -2 1 C-1.34 0.67 -0.68 0.34 0 0 Z " fill="#A090BB" transform="translate(249,392)"/>
<path d="M0 0 C-2 2 -2 2 -4.6015625 2.1953125 C-5.59929687 2.17210937 -6.59703125 2.14890625 -7.625 2.125 C-9.12933594 2.09792969 -9.12933594 2.09792969 -10.6640625 2.0703125 C-11.43492187 2.04710937 -12.20578125 2.02390625 -13 2 C-8.60512179 -0.3255835 -4.86026814 -1.62008938 0 0 Z " fill="#9784B6" transform="translate(410,346)"/>
<path d="M0 0 C1.32 0 2.64 0 4 0 C4 1.98 4 3.96 4 6 C5.32 6.33 6.64 6.66 8 7 C5.69 7 3.38 7 1 7 C1 5.68 1 4.36 1 3 C1.66 3 2.32 3 3 3 C3 2.34 3 1.68 3 1 C2.01 0.67 1.02 0.34 0 0 Z " fill="#C0BBD0" transform="translate(272,324)"/>
<path d="M0 0 C3.63 0.33 7.26 0.66 11 1 C10.34 1.66 9.68 2.32 9 3 C7.68 3 6.36 3 5 3 C4.67 4.32 4.34 5.64 4 7 C3.896875 6.360625 3.79375 5.72125 3.6875 5.0625 C3.460625 4.381875 3.23375 3.70125 3 3 C2.01 2.67 1.02 2.34 0 2 C0 1.34 0 0.68 0 0 Z " fill="#DADDE1" transform="translate(271,180)"/>
<path d="M0 0 C2.64 0.66 5.28 1.32 8 2 C7.67 4.31 7.34 6.62 7 9 C6.34 8.67 5.68 8.34 5 8 C5 6.68 5 5.36 5 4 C2.525 3.01 2.525 3.01 0 2 C0 1.34 0 0.68 0 0 Z " fill="#DDDFE3" transform="translate(246,122)"/>
<path d="M0 0 C1.65 0.33 3.3 0.66 5 1 C3.15215708 4.69568584 -1.30459035 5.56289625 -5 7 C-5 6.34 -5 5.68 -5 5 C-4.360625 4.731875 -3.72125 4.46375 -3.0625 4.1875 C-0.66868314 3.11332248 -0.66868314 3.11332248 0 0 Z " fill="#BDB7CE" transform="translate(309,445)"/>
<path d="M0 0 C-1.75 3.875 -1.75 3.875 -4 5 C-4 4.34 -4 3.68 -4 3 C-5.65 3 -7.3 3 -9 3 C-6.15236477 0.15236477 -3.96383452 0 0 0 Z " fill="#BFB9D0" transform="translate(188,361)"/>
<path d="M0 0 C1.65 0.33 3.3 0.66 5 1 C4.34 2.32 3.68 3.64 3 5 C1.68 5 0.36 5 -1 5 C-0.67 3.35 -0.34 1.7 0 0 Z " fill="#C7C4D4" transform="translate(266,326)"/>
<path d="M0 0 C1.32 1.32 2.64 2.64 4 4 C-1.625 6.125 -1.625 6.125 -5 5 C-3.35 4.34 -1.7 3.68 0 3 C0 2.01 0 1.02 0 0 Z " fill="#D7DADE" transform="translate(437,290)"/>
<path d="M0 0 C0.99 0.33 1.98 0.66 3 1 C2.01 1.495 2.01 1.495 1 2 C0.67 2.99 0.34 3.98 0 5 C-1.32467746 5.6837045 -2.65863633 6.34964186 -4 7 C-4.66 7.99 -5.32 8.98 -6 10 C-6 8.35 -6 6.7 -6 5 C-4.35 4.67 -2.7 4.34 -1 4 C-0.67 2.68 -0.34 1.36 0 0 Z " fill="#DDDFE3" transform="translate(246,132)"/>
<path d="M0 0 C0.33 0.66 0.66 1.32 1 2 C2.98 1.67 4.96 1.34 7 1 C7.33 1.66 7.66 2.32 8 3 C3.545 3.495 3.545 3.495 -1 4 C-0.67 2.68 -0.34 1.36 0 0 Z " fill="#DFE1E5" transform="translate(656,257)"/>
<path d="M0 0 C0.66 0 1.32 0 2 0 C2 2.64 2 5.28 2 8 C1.34 8 0.68 8 0 8 C-1.125 6.25 -1.125 6.25 -2 4 C-1.125 1.75 -1.125 1.75 0 0 Z " fill="#E0DFE7" transform="translate(151,346)"/>
<path d="M0 0 C2.0625 0.4375 2.0625 0.4375 4 1 C3.01 1.66 2.02 2.32 1 3 C1.33 4.32 1.66 5.64 2 7 C0.68 7 -0.64 7 -2 7 C-1.125 1.125 -1.125 1.125 0 0 Z " fill="#CAC9D6" transform="translate(304,323)"/>
<path d="M0 0 C0.66 0 1.32 0 2 0 C1.49396008 2.16874252 1.00016187 3.99967627 0 6 C-0.99 5.67 -1.98 5.34 -3 5 C-1.125 1.125 -1.125 1.125 0 0 Z " fill="#E1E3E8" transform="translate(333,315)"/>
<path d="M0 0 C0.99 0.33 1.98 0.66 3 1 C2 4 2 4 -1 6 C-1.625 4.125 -1.625 4.125 -2 2 C-1.34 1.34 -0.68 0.68 0 0 Z " fill="#EFF1F3" transform="translate(590,560)"/>
<path d="M0 0 C1.32 0.33 2.64 0.66 4 1 C4 4 4 4 3 7 C2.34 7 1.68 7 1 7 C1.020625 6.21625 1.04125 5.4325 1.0625 4.625 C1.18684063 2.01885039 1.18684063 2.01885039 0 0 Z " fill="#DEE0E4" transform="translate(518,381)"/>
<path d="M0 0 C1.65 0.33 3.3 0.66 5 1 C4.01 1.33 3.02 1.66 2 2 C2 2.66 2 3.32 2 4 C0.35 4.66 -1.3 5.32 -3 6 C-2.67 5.01 -2.34 4.02 -2 3 C-1.34 2.67 -0.68 2.34 0 2 C0 1.34 0 0.68 0 0 Z " fill="#D7DADE" transform="translate(491,342)"/>
<path d="M0 0 C0.66 1.32 1.32 2.64 2 4 C1.01 4.99 0.02 5.98 -1 7 C-1.66 6.67 -2.32 6.34 -3 6 C-2.42655063 3.13275314 -2.1385485 2.1385485 0 0 Z " fill="#D8DBDF" transform="translate(285,177)"/>
<path d="M0 0 C1.5 1.3125 1.5 1.3125 3 3 C3 3.99 3 4.98 3 6 C2.01 6 1.02 6 0 6 C-0.33 7.32 -0.66 8.64 -1 10 C-1.09978121 6.50765756 -0.77842938 3.40562852 0 0 Z " fill="#DBDEE2" transform="translate(341,151)"/>
<path d="M0 0 C0.66 0.33 1.32 0.66 2 1 C2 3.31 2 5.62 2 8 C1.01 8 0.02 8 -1 8 C-1.04241723 5.66705225 -1.04092937 3.33297433 -1 1 C-0.67 0.67 -0.34 0.34 0 0 Z " fill="#E0E2E5" transform="translate(225,102)"/>
</svg>
